<?xml version="1.0" encoding="UTF-8" standalone="no"?>
<svg
   xmlns:dc="http://purl.org/dc/elements/1.1/"
   xmlns:cc="http://creativecommons.org/ns#"
   xmlns:rdf="http://www.w3.org/1999/02/22-rdf-syntax-ns#"
   xmlns:svg="http://www.w3.org/2000/svg"
   xmlns="http://www.w3.org/2000/svg"
   style="enable-background:new"
   id="svg8"
   version="1.1"
   viewBox="0 0 103.20417 103.20411"
   height="4.0631537in"
   width="4.0631561in">
  <defs
     id="defs2" />
  <metadata
     id="metadata5">
    <rdf:RDF>
      <cc:Work
         rdf:about="">
        <dc:format>image/svg+xml</dc:format>
        <dc:type
           rdf:resource="http://purl.org/dc/dcmitype/StillImage" />
        <dc:title></dc:title>
      </cc:Work>
    </rdf:RDF>
  </metadata>
  <g
     transform="translate(-56.347916,-105.69794)"
     style="display:inline"
     id="layer2">
    <path
       style="stroke-width:0.03847478"
       d="m 130.57534,174.37282 c -0.28761,-0.13587 -0.57079,-0.29207 -0.78998,-0.52641 0.5183,-0.67057 1.2317,-1.1616 1.92282,-1.63801 0.0319,-0.12766 0.0976,-0.38428 0.13037,-0.51355 -1.10283,0.11646 -1.97234,0.85924 -2.95622,1.28466 -0.85323,0.0753 -3.16732,-2.04848 -4.99948,-2.75257 -0.54421,-0.22664 -0.63936,-0.86048 -0.82359,-1.34932 -0.48352,-0.32558 -1.00862,-0.58157 -1.55067,-0.78989 1.21215,-0.86877 2.45518,-1.73571 3.35922,-2.94356 0.73066,-2.18567 1.00529,-1.92122 1.13188,-4.55064 0.11161,-1.36437 -0.3288,-4.20227 -1.12071,-4.94221 -1.08898,-0.46014 -1.59624,-1.15804 -2.65537,-1.69681 0.59467,-0.56976 1.40188,-0.87782 1.92823,-1.52417 1.50258,-1.67851 1.81244,-4.86261 0.85731,-6.54316 -0.92319,-0.54677 -1.83159,-1.13416 -2.64114,-1.84179 -0.11749,-0.0391 -0.35184,-0.11932 -0.46963,-0.1575 -0.0182,-0.42867 0.0466,-0.85274 0.1317,-1.27236 0.16538,-0.15632 0.33186,-0.3163 0.49597,-0.47501 -0.0379,-0.24798 -0.0775,-0.49653 -0.11302,-0.74571 0.47466,0.29126 0.62662,0.76993 0.58666,1.30221 0.19904,0.12367 0.39909,0.24389 0.60338,0.36334 0.0273,-0.25492 0.0558,-0.50754 0.083,-0.76253 0.44179,-0.73991 0.55311,-1.59195 0.46692,-2.4354 -0.62216,-0.42232 -1.25292,-0.82972 -1.89585,-1.21731 -0.40821,0.90787 -0.45178,1.98182 -1.05554,2.79263 -0.0279,0.0718 -0.0855,0.21498 -0.11397,0.28664 0.0171,0.35747 0.0283,0.71508 0.0353,1.07334 -0.14779,0.032 -0.29561,0.0641 -0.44339,0.0962 -1.3601,-0.9997 -1.90122,-1.20405 -2.5068,-1.68141 0.0615,-0.95439 0.53228,-2.73498 -0.0387,-4.00706 -0.63936,-0.3419 -4.21676,-2.53738 -4.43061,-2.64793 0.10496,-0.32293 0.22986,-0.64155 0.27122,-0.97858 -0.12983,-0.1747 -0.2649,-0.34514 -0.40581,-0.50955 0.12239,-0.8249 0.59406,-1.51606 0.83944,-2.29429 0.19739,0.28455 0.32477,0.59811 0.26886,0.95022 0.0849,0.0426 0.25719,0.12628 0.34267,0.16708 0.17879,0.19401 0.36046,0.38508 0.53929,0.57912 -0.0641,-0.68722 0.17752,-1.33662 0.38776,-1.97842 -0.40238,-0.5891 -0.38699,-1.35527 -0.84049,-1.91328 -0.32299,-0.16087 -0.63214,-0.34687 -0.93897,-0.53409 -0.21301,0.68222 -0.42563,1.36657 -0.65601,2.04335 -0.8411,0.76608 -0.39894,-0.42467 -0.77047,2.55603 -0.4592,0.10894 -0.88365,0.31347 -1.13727,0.73111 -1.97737,-0.94016 -3.84609,-2.09388 -5.80385,-3.07111 -0.0407,0.11902 -0.1235,0.35444 -0.1632,0.4737 0.74786,1.25299 1.69564,2.82647 0.71448,5.24492 -0.79425,3.00402 -2.0134,4.5738 -3.88323,5.99037 -0.52503,-0.28748 -1.07298,-0.52717 -1.6134,-0.77817 0.17209,0.50857 0.3636,1.01155 0.51849,1.52459 -0.61288,-0.40174 -1.22591,-0.80944 -1.805749,-1.25975 -0.54619,-1.075 0.0164,-2.22929 0.37862,-3.26571 0.210409,-0.0497 0.419499,-0.10767 0.626689,-0.1722 0.0317,-0.27521 0.0295,-0.55521 0.057,-0.82975 0.34157,0.50109 0.17461,1.17424 0.53064,1.68579 0.12793,0.0372 0.38376,0.11156 0.51026,0.14704 -0.003,-0.15243 -0.008,-0.30362 -0.0121,-0.45426 0.31762,-0.49582 0.47741,-1.06505 0.64694,-1.62133 -0.22541,-0.43298 -0.46855,-0.85976 -0.79132,-1.22707 0.031,-0.10819 0.0924,-0.32294 0.12223,-0.43156 0.0919,0.0206 0.27636,0.0656 0.36985,0.0871 0.0689,-0.20843 0.14019,-0.41805 0.20923,-0.62637 -0.12887,-0.73297 -0.60753,-1.30479 -1.13228,-1.7988 -0.20483,-0.0677 -0.40879,-0.13833 -0.61327,-0.2072 -0.27492,1.25872 -0.744079,2.46601 -0.995729,3.73206 -0.26598,0.14409 -0.53166,0.28872 -0.79802,0.43482 -0.002,0.11753 -0.009,0.35133 -0.0125,0.47006 0.63,0.72184 -0.0534,1.598 -0.19082,2.37689 -0.32826,0.0618 -0.693,0.28894 -1.01269,0.0796 -1.423008,-0.74569 -2.604004,-1.85961 -3.991854,-2.66698 0.15047,1.16682 1.03613,1.67223 1.60483,4.79786 0.631446,4.84769 -1.37486,8.71048 -4.06658,10.49583 -0.942397,-2.59873 -2.047546,-12.85053 -3.127698,-13.55513 -0.255888,3.42913 0.674473,6.11832 -2.112829,18.27937 -0.663433,4.42321 -3.436141,6.34116 -5.175555,6.56439 0.262465,-0.49552 0.762426,-0.76472 1.227266,-1.03514 -0.0095,-0.4377 -0.02319,-0.87474 -0.0392,-1.31053 0.272634,-0.19727 0.540532,-0.39803 0.811955,-0.59763 -0.49024,-0.44766 -0.644452,-1.10011 -0.974423,-1.65065 -0.06769,0.13998 -0.204981,0.41922 -0.272683,0.55917 -0.363228,0.13531 -0.730871,0.25934 -1.10345,0.36802 -0.01226,0.0887 -0.03658,0.26579 -0.05009,0.35206 0.08466,0.67971 -0.426963,1.24814 -0.445035,1.923 0.487935,1.04587 0.526649,0.0331 -1.771593,7.45278 0.209025,1.24604 0.69242,2.43896 0.795509,3.70278 -1.35129,1.4581 -0.653872,-0.36818 -1.182337,3.74992 -0.21631,5.03014 -8.219238,1.01478 33.946116,13.25428 0.90153,-2.97932 7.08746,-7.86523 8.51779,-7.57001 2.00329,0.27741 5.49672,0.2216 7.48738,-1.05187 0.7043,-0.64928 1.53259,-1.15527 2.16025,-1.88576 0.28998,-0.37078 0.56261,-0.75495 0.86217,-1.11881 0.48456,-1.13359 0.72138,-3.87563 0.0151,-4.56434 z M 93.428077,154.48375 c -0.21062,0.87381 -0.45039,1.74037 -0.7158,2.60078 -0.27014,0.1705 -0.54301,0.35594 -0.86665,0.40931 -0.002,-0.0101 -0.58006,-2.91536 -0.5823,-2.92551 0.0282,-0.0992 0.0806,-0.29914 0.10617,-0.39925 1.58619,0.17599 0.13014,-0.0599 2.05857,0.31469 z m -13.033285,12.65879 c 0.08652,-0.26778 0.172085,-0.53582 0.258052,-0.80182 0.113155,-0.0469 0.338213,-0.14314 0.451365,-0.19009 -0.139643,0.45952 -0.280792,0.92049 -0.412337,1.38256 -0.07516,-0.0985 -0.222491,-0.29239 -0.297694,-0.39085 z m 1.24146,1.07199 c -0.06971,-0.0909 -0.213836,-0.27003 -0.283557,-0.36081 0.113036,-0.35185 0.225684,-0.70581 0.338714,-1.05764 l 0.356047,0.11226 z m 0.481132,0.28939 c 0.147533,-0.48454 0.298078,-1.00158 0.778058,-1.25741 -0.116481,0.46287 -0.256709,0.92022 -0.400552,1.37643 z m 1.571006,0.68809 c -0.09035,-0.0253 -0.272355,-0.072 -0.362895,-0.0967 l 0.342406,-1.08596 c 0.08944,0.0282 0.268943,0.0827 0.358402,0.11091 z m 0.575335,0.64557 c 0.140102,-0.4377 0.281175,-0.87514 0.42262,-1.31045 l 0.35424,0.11169 c -0.105839,0.34233 -0.213184,0.68611 -0.316723,1.03113 -0.115538,0.0422 -0.344448,0.1254 -0.460044,0.16766 z m 0.919804,0.55753 c -0.02347,-0.5306 0.189073,-1.03005 0.338172,-1.52791 0.546998,0.47342 -0.188334,1.04017 -0.338172,1.52791 z m 1.10049,0.53974 c -0.371257,-0.46323 -0.06854,-0.99918 0.06646,-1.48965 0.08946,0.0282 0.271933,0.0857 0.362003,0.11204 -0.126576,0.46364 -0.231016,0.93821 -0.429021,1.3773 z m 0.668486,0.35637 c 0.04668,-0.52227 0.06833,-1.12127 0.566439,-1.42838 0.130208,0.41675 -9.1e-5,0.83 -0.100292,1.23507 -0.117259,0.0476 -0.348889,0.14565 -0.466159,0.19328 z m -6.168849,-6.38641 c -0.04894,-0.0882 -0.144352,-0.26582 -0.191445,-0.35347 3.114908,-1.19601 8.67226,0.50033 9.182807,1.48109 -0.345632,1.25217 -0.738233,2.49735 -1.198407,3.7134 -1.591379,-0.33149 -6.828091,-4.24857 -7.792932,-4.84104 z m 7.038945,6.91446 c 0.09373,-0.43462 0.219141,-0.85733 0.350556,-1.2801 0.06465,0.10688 0.198045,0.32012 0.262702,0.42702 -0.162837,0.3106 -0.307445,0.65051 -0.613217,0.85307 z m 4.106016,-9.85987 c 0.14333,-0.7416 0.44477,-1.43727 0.6392,-2.16467 l 0.13993,0.0617 c -0.27049,0.69557 -0.32516,1.48674 -0.77906,2.10286 z m 11.583563,-19.47696 c 2.07215,-0.39531 4.40482,-0.13166 5.79286,0.3611 -0.15026,0.46991 -0.26208,0.95592 -0.48094,1.40027 -0.21956,0.17857 -0.46511,0.32735 -0.70041,0.48724 -0.077,0.22752 -0.15356,0.4571 -0.22632,0.68787 -0.3005,-0.25867 -3.65996,-2.25017 -3.69408,-2.27014 -0.20071,-0.23052 -0.84287,-0.2775 -0.69083,-0.66622 z m -8.203607,12.31297 c 0.35252,0.0797 0.708,0.19376 1.07504,0.1462 0.891698,0.21625 1.782248,0.47345 2.585848,0.92544 -0.96509,1.35776 -2.53867,2.00051 -3.979434,2.71459 -0.36467,-0.0599 -0.42032,-0.56331 -0.54549,-0.85255 0.15982,-1.00585 0.59228,-1.95326 0.864066,-2.93365 z m -1.312156,3.75619 c 0.24052,-0.20154 0.67686,0.17399 0.37723,0.39433 -0.23835,0.1943 -0.67694,-0.18 -0.37723,-0.39433 z m -2.81086,8.98976 c 0.50168,0.31157 0.70301,0.87076 0.84891,1.41239 -0.0646,0.17829 -0.12645,0.35748 -0.19114,0.5377 -0.53976,0.40806 -1.08536,0.8222 -1.731865,1.05106 0.138919,-0.28463 0.282075,-0.56407 0.429415,-0.84415 0.0207,-0.76447 0.34504,-1.46866 0.64466,-2.15701 z m -1.217498,5.33988 c -0.179241,-0.40467 -0.126314,-0.83452 -0.0072,-1.24346 0.123317,-0.0417 0.370508,-0.12708 0.493858,-0.16882 -0.147594,0.47477 -0.302412,0.94916 -0.486603,1.41229 z m 0.960358,0.17302 c -0.0894,-0.0282 -0.26774,-0.0865 -0.3572,-0.11473 l 0.33845,-1.07344 0.3578,0.11281 z m -0.38399,-2.11951 c 2.12076,-1.06308 1.33229,0.22271 1.32805,0.45418 -0.44639,-0.14389 -0.88938,-0.29217 -1.32805,-0.45418 z m 2.24708,-2.85365 c 0.008,-0.13346 0.48271,-2.53327 -0.14602,-5.41969 0.29475,-1.02231 0.63166,-2.03331 0.94816,-3.05077 0.60103,-0.21569 1.17487,-0.50089 1.777216,-0.7083 2.254078,2.66871 -0.207376,6.97536 -1.234116,8.17495 -0.22838,0.25646 -0.444,0.52293 -0.63649,0.80833 -0.21598,0.17973 -0.43834,0.47945 -0.70875,0.19547 z m -1.05628,5.47734 c -0.0693,-0.10447 -0.20622,-0.31285 -0.27559,-0.41733 0.13404,-0.36294 0.28839,-0.72144 0.56456,-0.99824 0.0451,0.093 0.13745,0.28136 0.18292,0.37433 -0.16345,0.34382 -0.31679,0.6928 -0.47188,1.04122 z m 6.975864,3.52124 c -0.45624,-0.14384 -0.91244,-0.28769 -1.36926,-0.42964 -0.18013,-0.38326 -0.3584,-0.76599 -0.53382,-1.1517 -0.688198,-0.18207 -3.361374,-1.17883 -3.703024,-1.79896 -0.36635,-0.52858 0.01,-1.15351 -0.0413,-1.73412 -0.26647,-0.11547 -0.58625,-0.1494 -0.80666,-0.3487 0.0431,-0.41121 0.12967,-0.81671 0.13598,-1.22976 1.93829,-1.00224 5.730354,-0.55605 8.282103,0.45754 -0.64688,2.08161 -1.315159,4.15453 -1.963969,6.23555 z m 4.424229,-16.10295 c -2.39192,-0.78574 -4.810469,-1.49315 -7.196197,-2.29842 1.087828,-0.74277 2.508498,-0.65087 3.717748,-1.11732 0.764989,0.0752 0.709909,0.084 1.356239,0.0342 1.70768,0.0435 2.69196,0.24469 3.5531,0.28432 -0.34339,2.82036 -0.88289,2.73335 -1.43089,3.09719 z m 11.83327,-12.38999 c 0.10895,0.0226 0.32618,0.0634 0.43566,0.0843 1.01128,-0.15914 2.65935,0.0793 3.73329,0.41787 l -0.42702,1.35432 c -0.19862,0.10682 -0.3947,0.21563 -0.59213,0.32472 -1.11431,-0.41918 -2.35872,-1.27751 -2.66485,-1.62306 -0.19582,-0.0775 -0.39117,-0.15679 -0.5876,-0.23245 l 0.10268,-0.32567 z m -0.54602,15.43747 c -0.21137,0.17137 -0.418,0.34617 -0.62329,0.52339 -0.84819,-0.38545 -1.94909,-0.36868 -2.58932,-1.10164 2.05028,-0.52468 2.67737,-1.42048 3.37415,-2.21107 l 0.65839,0.20757 c -0.27191,0.86235 -0.54037,1.72381 -0.81933,2.58194 z m -3.78699,-3.23575 c 0.17983,0.0535 0.3605,0.10424 0.54066,0.15673 0.14182,0.27463 0.28543,0.54829 0.43557,0.82156 -0.15235,0.52042 -0.32181,1.04722 -0.66466,1.47804 -1.34433,-0.35896 -2.6679,-0.82746 -3.82875,-1.61238 0.41296,-0.28679 0.89788,-0.42108 1.39989,-0.4162 0.92576,-0.25178 0.6444,-0.13317 2.11761,-0.4279 z m 4.45659,-15.24496 c -0.0171,-0.0643 -0.0524,-0.19554 -0.069,-0.26169 0.1903,-0.0422 0.38195,-0.0822 0.57352,-0.12215 -0.0518,0.82552 -0.21346,1.64391 -0.68928,2.33576 -1.0658,0.89404 -2.0434,1.22773 -3.16094,0.29953 -0.19597,-0.0835 -0.39192,-0.16688 -0.58726,-0.24607 0.0437,-0.12198 0.13051,-0.36404 0.17421,-0.48401 0.11539,0.0269 0.34534,0.0774 0.45911,0.10345 1.11047,-0.52126 2.12368,-1.25803 3.29953,-1.62483 z m -4.66723,-0.64352 c 0.16099,-0.50391 0.3176,-1.00725 0.47668,-1.51175 0.16869,0.0137 0.33739,0.0277 0.50617,0.0416 0.35077,0.1539 0.70547,0.2952 1.06429,0.42994 0.45271,0.72889 0.54184,1.71881 -0.0103,2.42197 -0.47557,0.4854 -1.20474,0.52693 -1.82147,0.72388 -0.22307,-0.0724 -0.44577,-0.14579 -0.6694,-0.2163 0.33466,-0.3626 0.66914,-0.73118 0.87174,-1.18655 -0.14083,-0.2333 -0.27879,-0.46951 -0.41785,-0.7022 z m -4.00208,13.32302 c 0.87025,0.24681 1.71556,0.56649 2.56492,0.87949 -0.87383,0.94989 -2.06651,1.66943 -3.37946,1.7413 0.25563,-0.87925 0.54141,-1.74706 0.81458,-2.62076 z m -0.0618,4.2134 c -0.27562,-0.16753 -0.54431,-0.34474 -0.80664,-0.52971 0.1265,-0.16474 0.26537,-0.31755 0.41435,-0.45943 0.37244,0.17248 0.3877,0.6356 0.39229,0.98914 z m 3.37084,17.14448 c -1.19315,0.39639 -8.57694,-1.68971 -9.07115,-1.87271 -0.0714,-0.75863 1.39108,-4.94043 1.41981,-5.01451 0.48825,-0.32308 3.30241,0.1823 3.87117,0.32364 1.00854,-0.0613 5.19322,1.29282 5.23037,1.30295 -0.16369,1.82291 -1.01033,3.49734 -1.4502,5.26063 z m 10.74331,-29.77524 c 0.42452,0.23808 0.84622,0.48513 1.26674,0.72982 0.45314,0.46549 0.62814,1.08322 0.74924,1.70358 -0.1425,0.45861 -0.43065,0.84177 -0.76935,1.17362 -0.72274,-0.45456 -0.89003,-0.54468 -1.32822,-0.82789 0.0657,-0.20161 0.13225,-0.40284 0.19982,-0.60382 -0.16731,-0.25536 -0.33526,-0.50889 -0.50895,-0.75644 0.12633,-0.47549 0.25562,-0.94807 0.39026,-1.419 z m -3.41385,12.17489 c 0.73606,0.46027 1.62109,0.66653 2.25006,1.29166 0.0777,0.0403 0.23627,0.11779 0.31586,0.15862 0.80907,0.79012 1.35484,1.80405 1.53071,2.92531 -0.0533,0.18581 -0.10552,0.37192 -0.15876,0.55971 -0.25325,0.18573 -0.51013,0.37019 -0.77065,0.54772 -0.65358,-0.34766 -1.42949,-0.45074 -2.01559,-0.91875 -0.45205,-0.18195 -0.92879,-0.29809 -1.36981,-0.50267 -0.16873,-0.52532 -0.46884,-0.98967 -0.69931,-1.48133 0.0157,-0.92938 0.6466,-1.71391 0.91782,-2.58042 z m -4.00815,13.386 c 0.0668,-0.0382 0.2003,-0.11219 0.26693,-0.14796 1.44017,0.293 2.38578,0.88532 3.55393,1.67916 -0.0403,0.11121 -0.12332,0.32893 -0.16373,0.43816 -1.43854,0.95671 -2.92692,1.91547 -4.65014,2.25921 -10e-4,-0.79111 0.58707,-3.29189 0.99299,-4.22861 z m 0.92924,4.70091 c -0.34157,-0.027 -0.68196,-0.0518 -1.02307,-0.0865 0.88627,-0.44986 2.07036,-0.56174 3.48714,-0.81633 1.13676,0.10924 0.82513,-0.0642 1.90806,0.14922 -0.7111,0.62209 -0.67124,0.89689 -4.37213,0.75362 z m 9.24028,2.16604 c -0.3715,0.1855 -0.75493,0.34812 -1.16859,0.41242 -0.79992,-0.0831 -1.61288,-0.0562 -2.39638,-0.25991 0.16224,-0.52122 0.32298,-1.04098 0.47703,-1.56281 -0.0808,-0.25556 -0.15731,-0.5118 -0.22791,-0.76816 0.47693,-0.1151 0.92961,-0.29696 1.35212,-0.54537 0.6912,0.3281 1.40779,0.61306 2.06051,1.01949 0.0823,0.17548 0.16714,0.34966 0.25299,0.52628 -0.006,0.21252 -0.008,0.42432 -0.008,0.63673 -0.11392,0.18044 -0.22962,0.36032 -0.34173,0.54138 z"
       id="path67" />
  </g>
  <g
     transform="translate(-56.347916,-105.69794)"
     style="display:inline"
     id="layer1">
    <path
       style="stroke-width:0.52916664;stroke-linecap:round;stroke-linejoin:round"
       d="m 103.61711,105.69794 -2.14974,12.24518 0.008,0.008 c -2.627837,0.42942 -5.170217,1.1176 -7.598557,2.03411 v -0.008 l -7.978777,-9.53346 -7.49935,4.33255 4.2582,11.67474 0.0164,0.008 c -2.03305,1.66899 -3.89651,3.53907 -5.56445,5.57293 l -0.008,-0.0249 -11.67474,-4.25822 -4.33255,7.49936 9.5332,7.98724 c -0.91493,2.42623 -1.59702,4.96491 -2.02565,7.59011 l -0.008,-0.008 -12.24518,2.14974 v 8.6651 l 12.24518,2.14974 0.008,-0.008 c 0.42863,2.62519 1.11072,5.16387 2.02565,7.59037 l -9.5332,7.98697 4.33255,7.49935 11.67474,-4.2582 0.008,-0.0249 c 1.66794,2.03385 3.5314,3.90393 5.56445,5.57265 l -0.0164,0.008 -4.2582,11.67474 7.49935,4.33255 7.978777,-9.53293 v -0.008 c 2.42834,0.91651 4.97072,1.6047 7.598557,2.03411 l -0.008,0.008 2.14974,12.24518 h 8.65691 l 2.14974,-12.24518 -0.008,-0.008 c 2.62704,-0.42836 5.17022,-1.11072 7.59856,-2.02565 l 7.98698,9.53321 7.49935,-4.33256 -4.2664,-11.67474 c 2.02856,-1.66475 3.89096,-3.52821 5.55625,-5.55625 l 11.68294,4.25821 4.32435,-7.49935 -9.525,-7.98724 c 0.91519,-2.42676 1.60522,-4.96464 2.03385,-7.59011 l 12.24544,-2.1415 v -8.6651 l -12.24544,-2.14974 c -0.42889,-2.62282 -1.11972,-5.15779 -2.03386,-7.5819 l 9.525,-7.98724 -4.32435,-7.4991 -11.68294,4.25795 c -1.66528,-2.02803 -3.52769,-3.8915 -5.55625,-5.55626 l 4.26641,-11.67474 -7.49935,-4.33255 -7.98698,9.5332 c -2.42834,-0.91493 -4.97152,-1.59729 -7.59857,-2.02565 l 0.008,-0.008 -2.14973,-12.24518 h -8.65691 z m 4.33256,21.08385 c 16.8566,0 30.52762,13.6615 30.52762,30.51705 0,16.8566 -13.6697,30.51704 -30.52762,30.51704 -16.856607,0 -30.517044,-13.66149 -30.517044,-30.51704 0,-16.8566 13.661237,-30.51705 30.517044,-30.51705 z"
       id="path77" />
  </g>
  <g
     transform="translate(-56.347916,-88.09794)"
     style="display:inline"
     id="layer4">
    <g
       id="text210"
       style="font-style:normal;font-weight:normal;font-size:10.58333302px;line-height:1.25;font-family:sans-serif;letter-spacing:0px;word-spacing:0px;fill:#000000;fill-opacity:1;stroke:none;stroke-width:0.26458332"
       aria-label="San Leandro High Makers Club">
      <path
         id="path830"
         style="font-style:normal;font-variant:normal;font-weight:bold;font-stretch:normal;font-size:5.64444447px;font-family:Cinzel;-inkscape-font-specification:'Cinzel, Bold';font-variant-ligatures:normal;font-variant-caps:normal;font-variant-numeric:normal;font-feature-settings:normal;text-align:start;writing-mode:lr-tb;text-anchor:start;fill:#ffffff;stroke-width:0.26458332"
         d="m 74.328389,135.26166 q -0.400608,-0.0684 -0.654935,-0.28928 l 0.0085,-0.0501 q 0.04356,0.0132 0.08808,0.0207 0.383916,0.0655 0.719772,-0.15773 0.331243,-0.22978 0.412905,-0.70828 0.06362,-0.37279 -0.07929,-0.60904 -0.141964,-0.24182 -0.4146,-0.28835 -0.161356,-0.0275 -0.307369,0.0563 -0.145065,0.0783 -0.341688,0.29098 l -0.805085,0.85893 q -0.453768,0.47799 -0.982347,0.38778 -0.05564,-0.009 -0.109381,-0.0301 -0.433859,-0.1084 -0.648704,-0.46 -0.213896,-0.35716 -0.125587,-0.87462 0.05223,-0.30601 0.184782,-0.7472 l 0.05982,-0.35053 0.805564,0.21191 -0.0095,0.0556 q -0.289328,-0.0494 -0.498845,0.13819 -0.214131,0.18104 -0.274904,0.53714 -0.07407,0.43399 0.159771,0.67431 0.11088,0.12199 0.238852,0.14383 0.127972,0.0218 0.225542,-0.013 0.157958,-0.0532 0.369507,-0.28623 l 0.871303,-0.94498 q 0.413737,-0.44473 0.942317,-0.35452 0.589784,0.10065 0.837613,0.56095 0.243215,0.45378 0.129267,1.12146 -0.06457,0.37835 -0.208669,0.68587 -0.148714,0.30101 -0.330144,0.42465 -0.112363,0.0209 -0.262591,-0.005 z" />
      <path
         id="path832"
         style="font-style:normal;font-variant:normal;font-weight:bold;font-stretch:normal;font-size:5.64444447px;font-family:Cinzel;-inkscape-font-specification:'Cinzel, Bold';font-variant-ligatures:normal;font-variant-caps:normal;font-variant-numeric:normal;font-feature-settings:normal;text-align:start;writing-mode:lr-tb;text-anchor:start;fill:#ffffff;stroke-width:0.26458332"
         d="m 76.27176,128.85545 0.01207,-0.0435 0.05439,0.0151 -0.443678,1.59905 -0.05439,-0.0151 0.01207,-0.0435 q 0.03018,-0.10878 -0.0215,-0.17584 -0.05169,-0.0671 -0.106075,-0.0822 -0.05439,-0.0151 -0.120255,-0.01 l -0.55924,0.0733 -0.319931,1.15306 0.44546,0.3579 q 0.04835,0.0369 0.108181,0.0534 0.05439,0.0151 0.13324,-0.0157 0.07492,-0.0378 0.105102,-0.14657 l 0.01207,-0.0435 0.05439,0.0151 -0.301822,1.08779 -0.05439,-0.0151 0.01207,-0.0435 q 0.03169,-0.11422 -0.0073,-0.24806 -0.03901,-0.13383 -0.160809,-0.24378 l -2.102515,-1.79591 q -0.472057,-0.38871 -0.594135,-0.4343 l 0.01358,-0.0489 3.461139,-0.60952 q 0.177349,-0.0269 0.285186,-0.12004 0.103907,-0.10004 0.137107,-0.21969 z m -1.733002,2.31913 0.268622,-0.96814 -1.269546,0.16323 z" />
      <path
         id="path834"
         style="font-style:normal;font-variant:normal;font-weight:bold;font-stretch:normal;font-size:5.64444447px;font-family:Cinzel;-inkscape-font-specification:'Cinzel, Bold';font-variant-ligatures:normal;font-variant-caps:normal;font-variant-numeric:normal;font-feature-settings:normal;text-align:start;writing-mode:lr-tb;text-anchor:start;fill:#ffffff;stroke-width:0.26458332"
         d="m 74.173155,125.18843 0.605529,-1.46596 0.05217,0.0216 -0.03663,0.0887 q -0.04956,0.11999 -0.011,0.23363 0.04071,0.10842 0.15333,0.16105 l 2.279789,0.94169 q 0.323448,0.1336 0.549364,0.17807 l 0.07735,0.0197 -0.01939,0.047 -3.10195,1.52183 1.726797,0.71327 q 0.116927,0.0422 0.227504,-0.004 0.107515,-0.0533 0.157078,-0.17329 l 0.03663,-0.0887 0.05217,0.0215 -0.603374,1.46074 -0.05217,-0.0215 0.03448,-0.0835 q 0.04956,-0.11999 0.01101,-0.23363 -0.04378,-0.1158 -0.158548,-0.1632 l -2.295439,-0.94816 q -0.313015,-0.1293 -0.533713,-0.1716 l -0.07735,-0.0197 0.02461,-0.0448 3.089362,-1.52092 -1.716363,-0.70897 q -0.114772,-0.0474 -0.222287,0.006 -0.110578,0.0459 -0.16014,0.16592 l -0.03663,0.0887 z" />
      <path
         id="path836"
         style="font-style:normal;font-variant:normal;font-weight:bold;font-stretch:normal;font-size:5.64444447px;font-family:Cinzel;-inkscape-font-specification:'Cinzel, Bold';font-variant-ligatures:normal;font-variant-caps:normal;font-variant-numeric:normal;font-feature-settings:normal;text-align:start;writing-mode:lr-tb;text-anchor:start;fill:#ffffff;stroke-width:0.26458332"
         d="m 78.746396,123.3699 q 0.07709,-0.12487 0.04402,-0.2647 -0.03492,-0.14759 -0.156826,-0.22949 l -2.660787,-1.6427 q -0.127839,-0.0723 -0.270629,-0.0344 -0.144628,0.0301 -0.221722,0.15499 l -0.03855,0.0624 -0.04803,-0.0297 0.901412,-1.46007 0.04506,0.0345 -0.03558,0.0576 q -0.07709,0.12487 -0.04218,0.27247 0.03011,0.14462 0.154987,0.22172 l 2.804873,1.73166 0.388438,-0.62918 q 0.216457,-0.35061 0.16003,-0.71048 -0.05346,-0.36468 -0.352118,-0.70827 l 0.02965,-0.048 0.843386,0.82583 -1.535959,2.48788 -0.04803,-0.0297 z" />
      <path
         id="path838"
         style="font-style:normal;font-variant:normal;font-weight:bold;font-stretch:normal;font-size:5.64444447px;font-family:Cinzel;-inkscape-font-specification:'Cinzel, Bold';font-variant-ligatures:normal;font-variant-caps:normal;font-variant-numeric:normal;font-feature-settings:normal;text-align:start;writing-mode:lr-tb;text-anchor:start;fill:#ffffff;stroke-width:0.26458332"
         d="m 82.195387,118.44685 -1.615298,2.11154 -0.04483,-0.0343 0.04115,-0.0538 q 0.07888,-0.10311 0.06307,-0.2218 -0.01238,-0.12318 -0.107574,-0.20311 l -2.133958,-1.63244 q -0.102057,-0.071 -0.224176,-0.0507 -0.118689,0.0158 -0.197568,0.11891 l -0.04115,0.0538 -0.04483,-0.0343 1.207186,-1.57806 q 0.0926,-0.12104 0.179926,-0.28165 0.08733,-0.16061 0.109497,-0.23603 l 0.712813,0.54529 -0.0343,0.0448 -0.04035,-0.0309 q -0.197256,-0.15089 -0.391642,-0.12904 -0.194386,0.0219 -0.346338,0.2112 l -0.493849,0.64557 1.089395,0.83337 0.390963,-0.51107 q 0.112121,-0.15586 0.08551,-0.32545 -0.02661,-0.1696 -0.179034,-0.2862 l -0.03138,-0.024 0.0343,-0.0448 0.950418,0.72706 -0.0343,0.0448 -0.03138,-0.024 q -0.210706,-0.16118 -0.424884,-0.0763 -0.111046,0.043 -0.186495,0.1416 l -0.394393,0.51556 1.062496,0.81279 0.411541,-0.53797 q 0.208146,-0.28138 0.18974,-0.60105 -0.01946,-0.32757 -0.255721,-0.65044 l 0.03087,-0.0404 z" />
      <path
         id="path840"
         style="font-style:normal;font-variant:normal;font-weight:bold;font-stretch:normal;font-size:5.64444447px;font-family:Cinzel;-inkscape-font-specification:'Cinzel, Bold';font-variant-ligatures:normal;font-variant-caps:normal;font-variant-numeric:normal;font-feature-settings:normal;text-align:start;writing-mode:lr-tb;text-anchor:start;fill:#ffffff;stroke-width:0.26458332"
         d="m 84.920641,115.40283 0.03094,-0.0329 0.04111,0.0387 -1.137189,1.20856 -0.04111,-0.0387 0.03094,-0.0329 q 0.07736,-0.0822 0.06284,-0.16563 -0.01452,-0.0834 -0.05562,-0.12209 -0.04111,-0.0387 -0.101798,-0.0648 l -0.529042,-0.19553 -0.820015,0.87148 0.227582,0.52415 q 0.02564,0.0551 0.07085,0.0977 0.04111,0.0387 0.125249,0.0481 0.0839,0.001 0.161258,-0.0808 l 0.03094,-0.0329 0.04111,0.0387 -0.773598,0.82216 -0.04111,-0.0387 0.03094,-0.0329 q 0.08123,-0.0863 0.109016,-0.22294 0.02779,-0.13661 -0.02881,-0.29061 l -1.024506,-2.56832 q -0.236774,-0.56381 -0.323585,-0.66099 l 0.03481,-0.037 3.346872,1.07213 q 0.169496,0.0587 0.308274,0.0266 0.138536,-0.0402 0.223632,-0.13059 z m -2.613503,1.2455 0.688503,-0.73172 -1.199533,-0.44666 z" />
      <path
         id="path842"
         style="font-style:normal;font-variant:normal;font-weight:bold;font-stretch:normal;font-size:5.64444447px;font-family:Cinzel;-inkscape-font-specification:'Cinzel, Bold';font-variant-ligatures:normal;font-variant-caps:normal;font-variant-numeric:normal;font-feature-settings:normal;text-align:start;writing-mode:lr-tb;text-anchor:start;fill:#ffffff;stroke-width:0.26458332"
         d="m 84.765993,111.18114 1.217217,-1.01689 0.03619,0.0433 -0.07364,0.0615 q -0.09963,0.0832 -0.118274,0.20177 -0.01431,0.11493 0.06097,0.21385 l 1.581423,1.89297 q 0.224366,0.26856 0.403773,0.41288 l 0.05933,0.0534 -0.03899,0.0326 -3.453887,-0.0933 1.197829,1.43381 q 0.08394,0.0917 0.203204,0.10237 0.119971,0.003 0.219601,-0.0805 l 0.07364,-0.0615 0.03619,0.0433 -1.212885,1.01327 -0.03619,-0.0433 0.06931,-0.0579 q 0.09963,-0.0832 0.118275,-0.20178 0.01502,-0.12288 -0.06459,-0.21818 l -1.592279,-1.90596 q -0.217129,-0.2599 -0.392917,-0.39989 l -0.05933,-0.0534 0.04261,-0.0282 3.442317,0.0883 -1.190591,-1.42514 q -0.07961,-0.0953 -0.199585,-0.098 -0.119258,-0.0107 -0.218888,0.0725 l -0.07364,0.0615 z" />
      <path
         id="path844"
         style="font-style:normal;font-variant:normal;font-weight:bold;font-stretch:normal;font-size:5.64444447px;font-family:Cinzel;-inkscape-font-specification:'Cinzel, Bold';font-variant-ligatures:normal;font-variant-caps:normal;font-variant-numeric:normal;font-feature-settings:normal;text-align:start;writing-mode:lr-tb;text-anchor:start;fill:#ffffff;stroke-width:0.26458332"
         d="m 89.634892,108.32593 q 0.672918,0.0992 1.101389,0.76993 0.428471,0.67068 0.238722,1.32774 -0.192787,0.65231 -0.958603,1.14156 l -1.607738,1.02711 -0.03039,-0.0476 0.06184,-0.0395 q 0.109403,-0.0699 0.136888,-0.19462 0.02748,-0.12473 -0.03461,-0.23241 l -1.440392,-2.25464 q -0.07637,-0.0986 -0.198054,-0.1213 -0.121688,-0.0227 -0.231091,0.0472 l -0.05708,0.0365 -0.03039,-0.0476 1.607738,-1.02712 q 0.765816,-0.48924 1.441772,-0.38525 z m 0.202877,3.08543 q 0.447122,-0.28565 0.494302,-0.77795 0.05194,-0.49534 -0.318796,-1.07565 -0.370734,-0.58031 -0.842025,-0.74138 -0.469574,-0.16887 -0.916696,0.11678 l -0.537499,0.34338 1.583215,2.4782 z" />
      <path
         id="path846"
         style="font-style:normal;font-variant:normal;font-weight:bold;font-stretch:normal;font-size:5.64444447px;font-family:Cinzel;-inkscape-font-specification:'Cinzel, Bold';font-variant-ligatures:normal;font-variant-caps:normal;font-variant-numeric:normal;font-feature-settings:normal;text-align:start;writing-mode:lr-tb;text-anchor:start;fill:#ffffff;stroke-width:0.26458332"
         d="m 91.822483,106.93051 -0.162438,0.079 1.224224,2.51779 q 0.05924,0.12183 0.177479,0.15848 0.12085,0.0291 0.22745,-0.0227 l 0.05584,-0.0271 0.02468,0.0508 -1.395954,0.67875 -0.02468,-0.0508 0.06091,-0.0296 q 0.111676,-0.0543 0.150796,-0.16746 0.0442,-0.11564 -0.0101,-0.22731 l -1.174861,-2.41627 q -0.0543,-0.11168 -0.172542,-0.14833 -0.113166,-0.0391 -0.219766,0.0127 l -0.06599,0.0321 -0.02468,-0.0508 1.558392,-0.75773 q 0.456858,-0.22214 0.852892,-0.19503 0.441441,0.0301 0.663579,0.48699 0.143155,0.29442 0.08149,0.61939 -0.06413,0.31989 -0.389705,0.54096 0.159271,-0.021 0.352957,0.0418 0.198762,0.0603 0.344154,0.15276 0.303126,0.21036 0.599266,0.36763 0.293672,0.15219 0.434827,0.17143 0.146231,0.0168 0.303593,-0.0597 l 0.02468,0.0508 -0.426401,0.20733 q -0.421324,0.20486 -0.699117,0.21441 -0.272716,0.007 -0.588602,-0.19081 -0.486379,-0.30327 -0.67578,-0.52499 -0.13496,-0.12267 -0.258278,-0.15685 -0.118242,-0.0366 -0.199322,-0.01 l -0.01975,-0.0406 0.126905,-0.0617 q 0.429008,-0.21487 0.281105,-0.76431 -0.01672,-0.086 -0.04387,-0.14185 -0.02715,-0.0558 -0.07912,-0.14982 -0.05444,-0.0991 -0.174592,-0.19127 -0.117543,-0.0998 -0.236064,-0.11116 -0.204258,-0.0199 -0.374241,0.0564 -0.05831,0.0221 -0.129373,0.0566 z" />
      <path
         id="path848"
         style="font-style:normal;font-variant:normal;font-weight:bold;font-stretch:normal;font-size:5.64444447px;font-family:Cinzel;-inkscape-font-specification:'Cinzel, Bold';font-variant-ligatures:normal;font-variant-caps:normal;font-variant-numeric:normal;font-feature-settings:normal;text-align:start;writing-mode:lr-tb;text-anchor:start;fill:#ffffff;stroke-width:0.26458332"
         d="m 94.636887,107.20137 q -0.265382,-0.76825 0.09198,-1.39332 0.360856,-0.63225 1.214473,-0.92712 0.858953,-0.29671 1.533107,-0.022 0.672311,0.26939 0.937693,1.03764 0.265381,0.76826 -0.09547,1.40051 -0.3627,0.62691 -1.216317,0.92178 -0.853617,0.29487 -1.525928,0.0255 -0.674155,-0.27472 -0.939536,-1.04298 z m 0.816271,-0.28196 q 0.232209,0.67222 0.656682,0.9675 0.427964,0.2881 0.913459,0.1204 0.49083,-0.16955 0.644392,-0.65853 0.157054,-0.49616 -0.07516,-1.16839 -0.232209,-0.67222 -0.660173,-0.96032 -0.424473,-0.29528 -0.915303,-0.12573 -0.485494,0.1677 -0.642549,0.66386 -0.153562,0.48898 0.07865,1.16121 z" />
      <path
         id="path850"
         style="font-style:normal;font-variant:normal;font-weight:bold;font-stretch:normal;font-size:5.64444447px;font-family:Cinzel;-inkscape-font-specification:'Cinzel, Bold';font-variant-ligatures:normal;font-variant-caps:normal;font-variant-numeric:normal;font-feature-settings:normal;text-align:start;writing-mode:lr-tb;text-anchor:start;fill:#ffffff;stroke-width:0.26458332"
         d="m 103.46934,106.5683 q 0.14508,-0.0221 0.21212,-0.10661 0.10874,-0.14793 0.0922,-0.29385 l -0.21721,-1.42285 -1.80786,0.27599 0.21637,1.41727 q 0.0222,0.14507 0.14435,0.2349 0.12135,0.0843 0.26642,0.0621 l 0.067,-0.0102 0.0141,0.0549 -1.69626,0.25896 -0.009,-0.0558 0.0725,-0.0111 q 0.14507,-0.0221 0.23017,-0.13792 0.0898,-0.1222 0.0733,-0.26813 l -0.47191,-3.09121 q -0.0277,-0.14422 -0.14908,-0.22847 -0.11662,-0.0907 -0.2617,-0.0685 l -0.0725,0.0111 -0.009,-0.0558 1.69626,-0.25896 0.003,0.0566 -0.067,0.0102 q -0.14508,0.0221 -0.23491,0.14434 -0.0907,0.11662 -0.0685,0.2617 l 0.21892,1.43401 1.80785,-0.27599 -0.21892,-1.43401 q -0.0277,-0.14423 -0.14908,-0.22848 -0.11662,-0.0907 -0.26169,-0.0685 l -0.0725,0.0111 -0.009,-0.0558 1.69626,-0.25895 0.009,0.0558 -0.0725,0.0111 q -0.14507,0.0222 -0.23491,0.14435 -0.0907,0.11662 -0.0685,0.26169 l 0.47191,3.09121 q 0.0221,0.14508 0.14435,0.23491 0.12135,0.0842 0.26642,0.0621 l 0.0725,-0.0111 0.009,0.0558 -1.69626,0.25895 -0.009,-0.0558 z" />
      <path
         id="path852"
         style="font-style:normal;font-variant:normal;font-weight:bold;font-stretch:normal;font-size:5.64444447px;font-family:Cinzel;-inkscape-font-specification:'Cinzel, Bold';font-variant-ligatures:normal;font-variant-caps:normal;font-variant-numeric:normal;font-feature-settings:normal;text-align:start;writing-mode:lr-tb;text-anchor:start;fill:#ffffff;stroke-width:0.26458332"
         d="m 105.46581,106.35714 0.0677,-0.003 q 0.1353,-0.007 0.2269,-0.0961 0.0913,-0.095 0.0851,-0.21903 l -0.13394,-2.67211 q -0.006,-0.12402 -0.10629,-0.20378 -0.10036,-0.0854 -0.23566,-0.0786 l -0.0676,0.003 -0.003,-0.0564 1.60101,-0.0803 0.003,0.0564 -0.0677,0.003 q -0.12966,0.007 -0.22126,0.0959 -0.0916,0.0894 -0.091,0.21367 l 0.13422,2.67775 q 0.0121,0.12938 0.11221,0.20913 0.10008,0.0798 0.22974,0.0733 l 0.0677,-0.003 0.003,0.0564 -1.60101,0.0803 z" />
      <path
         id="path854"
         style="font-style:normal;font-variant:normal;font-weight:bold;font-stretch:normal;font-size:5.64444447px;font-family:Cinzel;-inkscape-font-specification:'Cinzel, Bold';font-variant-ligatures:normal;font-variant-caps:normal;font-variant-numeric:normal;font-feature-settings:normal;text-align:start;writing-mode:lr-tb;text-anchor:start;fill:#ffffff;stroke-width:0.26458332"
         d="m 107.91486,105.90687 q -0.4835,-0.49335 -0.45138,-1.31681 0.0321,-0.82346 0.55234,-1.27202 0.52588,-0.44834 1.41138,-0.4138 0.39481,0.0154 0.77548,0.10368 0.38089,0.0826 0.61316,0.21032 l -0.035,0.89679 -0.0451,-0.002 q -0.21187,-0.94031 -1.14813,-0.97682 -0.58658,-0.0229 -0.91285,0.37675 -0.3204,0.39421 -0.349,1.12743 -0.0284,0.72758 0.23237,1.13881 0.26639,0.41145 0.77965,0.43147 0.282,0.011 0.51267,-0.10992 0.23089,-0.12657 0.31389,-0.37188 l 0.032,-0.67659 q 0.004,-0.10717 -0.0613,-0.16621 -0.0596,-0.0645 -0.17806,-0.0691 l -0.079,-0.003 0.002,-0.0451 1.44952,0.0565 -0.002,0.0451 -0.0677,-0.003 q -0.24817,-0.01 -0.25696,0.21593 l -0.0295,0.75578 q -0.20731,0.24611 -0.68336,0.4309 -0.47605,0.18479 -1.03442,0.16301 -0.85145,-0.0389 -1.3408,-0.52679 z" />
      <path
         id="path856"
         style="font-style:normal;font-variant:normal;font-weight:bold;font-stretch:normal;font-size:5.64444447px;font-family:Cinzel;-inkscape-font-specification:'Cinzel, Bold';font-variant-ligatures:normal;font-variant-caps:normal;font-variant-numeric:normal;font-feature-settings:normal;text-align:start;writing-mode:lr-tb;text-anchor:start;fill:#ffffff;stroke-width:0.26458332"
         d="m 115.17463,107.01529 0.0613,0.01 -0.009,0.0557 -1.53212,-0.24902 0.009,-0.0557 0.0557,0.009 q 0.12814,0.0208 0.23087,-0.0483 0.10272,-0.0691 0.12355,-0.19722 l 0.1956,-1.20341 -1.46526,-0.23815 -0.1956,1.2034 q -0.0153,0.12905 0.0603,0.22711 0.0756,0.0981 0.19813,0.11798 l 0.0613,0.01 -0.009,0.0557 -1.53769,-0.24993 0.009,-0.0557 0.0613,0.01 q 0.12814,0.0208 0.23087,-0.0482 0.10363,-0.0747 0.12355,-0.19722 l 0.42923,-2.64082 q 0.0199,-0.12256 -0.0556,-0.22062 -0.0746,-0.10363 -0.20279,-0.12446 l -0.0613,-0.01 0.009,-0.0557 1.53768,0.24992 -0.009,0.0557 -0.0613,-0.01 q -0.12257,-0.0199 -0.22529,0.0492 -0.10272,0.0691 -0.12822,0.19074 l -0.19831,1.22012 1.46526,0.23816 0.19741,-1.21455 q 0.0281,-0.17271 -0.10877,-0.28073 -0.0661,-0.0508 -0.14966,-0.0644 l -0.0557,-0.009 0.009,-0.0557 1.53212,0.24902 -0.009,0.0557 -0.0613,-0.01 q -0.12257,-0.0199 -0.2253,0.0492 -0.10272,0.0691 -0.12912,0.19632 l -0.43013,2.64638 q -0.0225,0.17362 0.10967,0.27516 0.0661,0.0508 0.14966,0.0644 z" />
      <path
         id="path858"
         style="font-style:normal;font-variant:normal;font-weight:bold;font-stretch:normal;font-size:5.64444447px;font-family:Cinzel;-inkscape-font-specification:'Cinzel, Bold';font-variant-ligatures:normal;font-variant-caps:normal;font-variant-numeric:normal;font-feature-settings:normal;text-align:start;writing-mode:lr-tb;text-anchor:start;fill:#ffffff;stroke-width:0.26458332"
         d="m 121.84752,109.18044 0.0849,0.0307 -0.0192,0.0531 -1.59229,-0.57617 0.0173,-0.0478 0.0796,0.0288 q 0.0922,0.0273 0.18081,-0.0186 0.0887,-0.0459 0.10877,-0.13471 l 0.49016,-2.00158 -1.6201,1.35861 q -0.31546,0.25802 -0.41487,0.51617 l -0.0531,-0.0192 -0.53438,-2.78649 -0.8984,1.83586 q -0.0414,0.0811 -0.005,0.17843 0.0387,0.0921 0.12895,0.1247 l 0.0796,0.0288 -0.0173,0.0478 -1.1093,-0.40139 0.0192,-0.0531 0.0849,0.0307 q 0.14861,0.0538 0.28742,0.002 0.14411,-0.0499 0.22103,-0.19614 l 1.67162,-3.2428 0.0478,0.0173 0.66589,3.30228 2.56116,-2.13457 0.0478,0.0173 -0.77993,3.56546 q -0.0292,0.16352 0.0444,0.29216 0.0788,0.13056 0.22211,0.18242 z" />
      <path
         id="path860"
         style="font-style:normal;font-variant:normal;font-weight:bold;font-stretch:normal;font-size:5.64444447px;font-family:Cinzel;-inkscape-font-specification:'Cinzel, Bold';font-variant-ligatures:normal;font-variant-caps:normal;font-variant-numeric:normal;font-feature-settings:normal;text-align:start;writing-mode:lr-tb;text-anchor:start;fill:#ffffff;stroke-width:0.26458332"
         d="m 125.19821,110.99917 0.04,0.021 -0.0262,0.05 -1.46939,-0.77119 0.0262,-0.05 0.04,0.021 q 0.0999,0.0525 0.17641,0.0161 0.0765,-0.0364 0.10269,-0.0863 0.0262,-0.05 0.0351,-0.11545 l 0.0464,-0.56211 -1.05956,-0.55609 -0.44386,0.35988 q -0.0462,0.0395 -0.0751,0.0945 -0.0262,0.05 -0.0127,0.13357 0.0211,0.0812 0.12109,0.13367 l 0.04,0.021 -0.0262,0.05 -0.99959,-0.52461 0.0262,-0.05 0.04,0.021 q 0.10496,0.0551 0.24401,0.0452 0.13906,-0.01 0.27223,-0.10574 l 2.19922,-1.6761 q 0.47959,-0.37938 0.54991,-0.48909 l 0.045,0.0236 -0.13473,3.51182 q -0.0111,0.17904 0.0571,0.30409 0.0759,0.12268 0.18581,0.18039 z m -1.90112,-2.18344 0.88963,0.46691 0.10841,-1.2754 z" />
      <path
         id="path862"
         style="font-style:normal;font-variant:normal;font-weight:bold;font-stretch:normal;font-size:5.64444447px;font-family:Cinzel;-inkscape-font-specification:'Cinzel, Bold';font-variant-ligatures:normal;font-variant-caps:normal;font-variant-numeric:normal;font-feature-settings:normal;text-align:start;writing-mode:lr-tb;text-anchor:start;fill:#ffffff;stroke-width:0.26458332"
         d="m 125.23857,111.10502 0.0317,-0.0467 0.0467,0.0317 q 0.14954,0.1013 0.30662,0.0305 0.0707,-0.0339 0.12286,-0.10085 l 1.5006,-2.21502 q 0.0935,-0.14803 0.0148,-0.3036 -0.0386,-0.0739 -0.10868,-0.12136 l -0.0514,-0.0348 0.0316,-0.0467 1.29444,0.87693 -0.0317,0.0467 -0.0514,-0.0348 q -0.1028,-0.0696 -0.22973,-0.0534 -0.12226,0.0194 -0.19658,0.11908 l -1.50377,2.2197 q -0.065,0.10597 -0.0409,0.23139 0.0273,0.12075 0.13476,0.19356 l 0.0467,0.0317 -0.027,0.0499 z m 3.07954,2.08628 -0.35983,-0.24377 q -0.64955,-0.44005 -0.68149,-0.98666 0.002,-0.0532 -0.0125,-0.42435 -0.0256,-0.97865 -0.0224,-0.98332 l 1.81908,-0.62207 q 0.0957,-0.0306 0.101,-0.10884 0.008,-0.0829 -0.071,-0.13673 l -0.042,-0.0285 0.0285,-0.0421 0.9533,0.64583 -0.0285,0.0421 -0.0187,-0.0127 q -0.25234,-0.17096 -0.53454,-0.1167 l -1.39622,0.39039 0.0569,2.02935 q 0.006,0.393 0.23696,0.55596 z" />
      <path
         id="path864"
         style="font-style:normal;font-variant:normal;font-weight:bold;font-stretch:normal;font-size:5.64444447px;font-family:Cinzel;-inkscape-font-specification:'Cinzel, Bold';font-variant-ligatures:normal;font-variant-caps:normal;font-variant-numeric:normal;font-feature-settings:normal;text-align:start;writing-mode:lr-tb;text-anchor:start;fill:#ffffff;stroke-width:0.26458332"
         d="m 130.39197,114.97585 -2.03369,-1.71228 0.0363,-0.0432 0.0518,0.0436 q 0.0993,0.0836 0.2186,0.0734 0.12362,-0.007 0.20792,-0.098 l 1.73045,-2.05528 q 0.0757,-0.0986 0.0611,-0.22156 -0.0102,-0.1193 -0.10954,-0.20291 l -0.0518,-0.0436 0.0364,-0.0432 1.51987,1.27967 q 0.11658,0.0982 0.27292,0.1929 0.15635,0.0947 0.23066,0.12042 l -0.57803,0.68653 -0.0432,-0.0364 0.0327,-0.0389 q 0.15996,-0.18998 0.14722,-0.38518 -0.0128,-0.19519 -0.19478,-0.35583 l -0.62176,-0.5235 -0.88341,1.04923 0.49223,0.41444 q 0.15044,0.11928 0.3211,0.10063 0.17065,-0.0186 0.29425,-0.16545 l 0.0255,-0.0302 0.0432,0.0364 -0.77071,0.91538 -0.0432,-0.0364 0.0255,-0.0302 q 0.17087,-0.20294 0.0961,-0.42085 -0.0377,-0.11294 -0.13273,-0.19292 l -0.49654,-0.41807 -0.8616,1.02332 0.51814,0.43625 q 0.27134,0.22108 0.59152,0.21764 0.32813,-0.004 0.66169,-0.22502 l 0.0389,0.0327 z" />
      <path
         id="path866"
         style="font-style:normal;font-variant:normal;font-weight:bold;font-stretch:normal;font-size:5.64444447px;font-family:Cinzel;-inkscape-font-specification:'Cinzel, Bold';font-variant-ligatures:normal;font-variant-caps:normal;font-variant-numeric:normal;font-feature-settings:normal;text-align:start;writing-mode:lr-tb;text-anchor:start;fill:#ffffff;stroke-width:0.26458332"
         d="m 134.01498,114.11877 -0.12549,-0.12992 -2.01367,1.94503 q -0.0974,0.0941 -0.0956,0.2179 0.01,0.12391 0.0922,0.20917 l 0.0431,0.0447 -0.0406,0.0392 -1.0784,-1.11645 0.0406,-0.0392 0.0471,0.0487 q 0.0863,0.0893 0.20599,0.0914 0.12364,0.006 0.21295,-0.0801 l 1.93248,-1.8666 q 0.0893,-0.0863 0.0875,-0.21005 0.002,-0.11972 -0.0803,-0.20498 l -0.051,-0.0528 0.0406,-0.0392 1.20388,1.24636 q 0.35293,0.36539 0.45004,0.75029 0.10833,0.429 -0.25705,0.78193 -0.23547,0.22744 -0.56354,0.26966 -0.324,0.0383 -0.63517,-0.20262 0.0693,0.1449 0.0698,0.3485 0.004,0.20765 -0.0384,0.37456 -0.10592,0.35344 -0.16355,0.68376 -0.0536,0.3264 -0.028,0.46656 0.0294,0.14421 0.15099,0.27007 l -0.0406,0.0392 -0.3294,-0.34102 q -0.32548,-0.33697 -0.42075,-0.59809 -0.0914,-0.25706 -0.001,-0.61875 0.13739,-0.55648 0.2894,-0.80533 0.0747,-0.16636 0.069,-0.2942 -0.002,-0.12377 -0.0525,-0.19251 l 0.0325,-0.0314 0.098,0.1015 q 0.33738,0.34116 0.81381,0.0301 0.0766,-0.0426 0.12124,-0.0857 0.0447,-0.0431 0.11787,-0.1217 0.0773,-0.0825 0.12766,-0.22532 0.0584,-0.1427 0.0324,-0.25891 -0.0444,-0.20036 -0.16978,-0.33826 -0.0391,-0.0486 -0.094,-0.10541 z" />
      <path
         id="path868"
         style="font-style:normal;font-variant:normal;font-weight:bold;font-stretch:normal;font-size:5.64444447px;font-family:Cinzel;-inkscape-font-specification:'Cinzel, Bold';font-variant-ligatures:normal;font-variant-caps:normal;font-variant-numeric:normal;font-feature-settings:normal;text-align:start;writing-mode:lr-tb;text-anchor:start;fill:#ffffff;stroke-width:0.26458332"
         d="m 133.74246,117.78223 q 0.28777,-0.22759 0.59296,-0.26026 l 0.028,0.0354 q -0.0345,0.0201 -0.061,0.0411 -0.27006,0.21358 -0.32315,0.56501 -0.0496,0.35587 0.22352,0.70119 0.19608,0.24792 0.41623,0.2897 0.22365,0.0462 0.36532,-0.0658 0.14167,-0.11205 0.16276,-0.25826 0.029,-0.14529 0.004,-0.41342 l -0.0988,-0.94378 q -0.0672,-0.59453 0.32239,-0.90265 0.0399,-0.0315 0.0876,-0.0621 0.33534,-0.22204 0.68399,-0.14516 0.35309,0.0734 0.58418,0.36557 0.23459,0.29662 0.45385,0.65574 l 0.18908,0.23907 -0.63341,0.4002 -0.0315,-0.0398 q 0.20808,-0.16457 0.21206,-0.4052 0.007,-0.23621 -0.18158,-0.47528 -0.18558,-0.23464 -0.39595,-0.29135 -0.20594,-0.0602 -0.36974,0.0693 -0.13282,0.10504 -0.12517,0.31489 0.002,0.0846 0.0207,0.23548 l 0.12286,1.04706 q 0.0658,0.5381 -0.32384,0.84623 -0.41172,0.32563 -0.86418,0.2085 -0.44895,-0.11269 -0.81309,-0.57312 -0.22409,-0.28334 -0.32925,-0.55279 -0.10516,-0.26946 -0.0839,-0.45181 0.0587,-0.0896 0.16493,-0.17363 z" />
      <path
         id="path870"
         style="font-style:normal;font-variant:normal;font-weight:bold;font-stretch:normal;font-size:5.64444447px;font-family:Cinzel;-inkscape-font-specification:'Cinzel, Bold';font-variant-ligatures:normal;font-variant-caps:normal;font-variant-numeric:normal;font-feature-settings:normal;text-align:start;writing-mode:lr-tb;text-anchor:start;fill:#ffffff;stroke-width:0.26458332"
         d="m 137.07351,123.56441 q -0.53967,-0.94631 -0.37165,-1.75689 0.16802,-0.81058 0.99666,-1.28314 0.82863,-0.47256 1.60902,-0.20934 0.7853,0.26041 1.31658,1.19201 0.40545,0.71096 0.43149,1.37188 l -0.83775,0.49076 -0.0224,-0.0392 q 0.75957,-0.76456 0.25066,-1.65694 -0.32995,-0.57857 -0.94456,-0.67641 -0.60691,-0.0957 -1.33258,0.3181 -0.72567,0.41384 -0.97049,0.97582 -0.24202,0.56687 0.0564,1.12442 0.32436,0.56876 0.77932,0.70568 0.46755,0.13622 1.25052,-0.15435 l 0.0224,0.0392 -0.81538,0.52998 q -0.88352,-0.0225 -1.41828,-0.97157 z" />
      <path
         id="path872"
         style="font-style:normal;font-variant:normal;font-weight:bold;font-stretch:normal;font-size:5.64444447px;font-family:Cinzel;-inkscape-font-specification:'Cinzel, Bold';font-variant-ligatures:normal;font-variant-caps:normal;font-variant-numeric:normal;font-feature-settings:normal;text-align:start;writing-mode:lr-tb;text-anchor:start;fill:#ffffff;stroke-width:0.26458332"
         d="m 138.07977,125.29984 0.0518,-0.0223 0.0268,0.0622 q 0.0514,0.11922 0.16265,0.16346 0.11349,0.0494 0.22753,2.8e-4 l 2.46216,-1.0612 q 0.11403,-0.0491 0.15604,-0.1656 0.0472,-0.11868 -0.002,-0.23272 l -0.0268,-0.0622 0.0518,-0.0223 0.62108,1.44101 -0.0518,0.0223 -0.0268,-0.0622 q -0.0514,-0.11922 -0.16488,-0.16865 -0.1135,-0.0494 -0.23272,0.002 l -2.57619,1.11035 0.26809,0.62202 q 0.1437,0.31914 0.43156,0.45937 0.29304,0.138 0.69019,0.0897 l 0.0246,0.057 -1.04089,0.20892 z" />
      <path
         id="path874"
         style="font-style:normal;font-variant:normal;font-weight:bold;font-stretch:normal;font-size:5.64444447px;font-family:Cinzel;-inkscape-font-specification:'Cinzel, Bold';font-variant-ligatures:normal;font-variant-caps:normal;font-variant-numeric:normal;font-feature-settings:normal;text-align:start;writing-mode:lr-tb;text-anchor:start;fill:#ffffff;stroke-width:0.26458332"
         d="m 143.56062,130.6155 -0.0235,-0.0755 q -0.0318,-0.1024 -0.11832,-0.15236 -0.0811,-0.0516 -0.17977,-0.0268 l -1.78402,0.55484 q -0.5821,0.18104 -1.0269,-0.0708 -0.43941,-0.25347 -0.65901,-0.95953 -0.21791,-0.70068 -0.0169,-1.19471 0.20269,-0.48864 0.79018,-0.67135 l 1.78941,-0.55652 q 0.097,-0.0302 0.13823,-0.12575 0.0429,-0.0902 0.011,-0.19259 l -0.0235,-0.0755 0.0539,-0.0168 0.44086,1.41752 -0.0539,0.0168 -0.0235,-0.0755 q -0.0319,-0.1024 -0.11832,-0.15235 -0.0865,-0.05 -0.18348,-0.0198 l -1.75169,0.54478 q -0.49586,0.15422 -0.70572,0.46776 -0.20819,0.31893 -0.0791,0.73394 0.12907,0.41501 0.46693,0.57003 0.33953,0.1604 0.80844,0.0146 l 1.81097,-0.56323 q 0.10073,-0.0372 0.13823,-0.12575 0.0429,-0.0902 0.011,-0.19259 l -0.0218,-0.0701 0.0539,-0.0168 0.31011,0.99712 z" />
      <path
         id="path876"
         style="font-style:normal;font-variant:normal;font-weight:bold;font-stretch:normal;font-size:5.64444447px;font-family:Cinzel;-inkscape-font-specification:'Cinzel, Bold';font-variant-ligatures:normal;font-variant-caps:normal;font-variant-numeric:normal;font-feature-settings:normal;text-align:start;writing-mode:lr-tb;text-anchor:start;fill:#ffffff;stroke-width:0.26458332"
         d="m 143.46234,134.16591 q -0.20508,0.0395 -0.37735,-0.0193 -0.33239,-0.11419 -0.42735,-0.45803 0.0438,0.37669 -0.1465,0.672 -0.18476,0.29425 -0.55057,0.36469 -0.715,0.13769 -1.06334,-0.68619 -0.0969,-0.23427 -0.15235,-0.52249 l -0.30953,-1.60735 0.0554,-0.0107 0.0117,0.061 q 0.0246,0.12748 0.1237,0.19461 0.10021,0.0727 0.22876,0.0537 l 2.6272,-0.50593 q 0.19846,-0.044 0.2353,-0.24074 0.0115,-0.0597 -2.5e-4,-0.12067 l -0.0117,-0.061 0.0554,-0.0107 0.28605,1.48542 q 0.24122,1.25263 -0.58463,1.41166 z m -1.6248,-0.34815 q 0.25496,-0.0491 0.40651,-0.18749 0.2952,-0.25803 0.2034,-0.7347 -0.001,-0.006 -0.002,-0.0111 l 0.0499,-0.01 q 0.0512,0.26605 0.23845,0.40244 0.18721,0.13639 0.51423,0.0734 0.66511,-0.12808 0.54877,-0.73223 l -0.0299,-0.15519 -2.8877,0.55608 0.0427,0.22171 q 0.0619,0.32147 0.28878,0.48471 0.22794,0.16879 0.627,0.0919 z" />
    </g>
    <circle
       transform="rotate(-173)"
       r="33.363476"
       style="fill:none;fill-opacity:1;stroke-width:0.73561817"
       cy="-125.5029"
       cx="-124.1705"
       id="path39" />
  </g>
  <circle
     r="0.86862582"
     cy="51.602058"
     cx="17.020714"
     id="path4575"
     style="fill:#ffffff;fill-opacity:1;stroke-width:0.07165797" />
  <circle
     r="0.86862582"
     cy="51.602058"
     cx="86.182709"
     id="path4575-8"
     style="fill:#ffffff;fill-opacity:1;stroke-width:0.07165797" />
</svg>
