<?xml version="1.0" encoding="UTF-8" standalone="no"?>
<!-- Created with Inkscape (http://www.inkscape.org/) -->

<svg
   xmlns:dc="http://purl.org/dc/elements/1.1/"
   xmlns:cc="http://creativecommons.org/ns#"
   xmlns:rdf="http://www.w3.org/1999/02/22-rdf-syntax-ns#"
   xmlns:svg="http://www.w3.org/2000/svg"
   xmlns="http://www.w3.org/2000/svg"
   xmlns:xlink="http://www.w3.org/1999/xlink"
   xmlns:sodipodi="http://sodipodi.sourceforge.net/DTD/sodipodi-0.dtd"
   xmlns:inkscape="http://www.inkscape.org/namespaces/inkscape"
   width="4.0631561in"
   height="4.0631537in"
   viewBox="0 0 103.20417 103.20411"
   version="1.1"
   id="svg8"
   inkscape:version="0.92.4 (f8dce91, 2019-08-02)"
   sodipodi:docname="source.svg"
   style="enable-background:new">
  <defs
     id="defs2" />
  <sodipodi:namedview
     id="base"
     pagecolor="#ffffff"
     bordercolor="#666666"
     borderopacity="1.0"
     inkscape:pageopacity="0.0"
     inkscape:pageshadow="2"
     inkscape:zoom="1.979899"
     inkscape:cx="146.80152"
     inkscape:cy="201.55668"
     inkscape:document-units="mm"
     inkscape:current-layer="svg8"
     showgrid="false"
     units="in"
     inkscape:window-width="1850"
     inkscape:window-height="1016"
     inkscape:window-x="70"
     inkscape:window-y="27"
     inkscape:window-maximized="1"
     inkscape:pagecheckerboard="true"
     fit-margin-top="0"
     fit-margin-left="0"
     fit-margin-right="0"
     fit-margin-bottom="0" />
  <metadata
     id="metadata5">
    <rdf:RDF>
      <cc:Work
         rdf:about="">
        <dc:format>image/svg+xml</dc:format>
        <dc:type
           rdf:resource="http://purl.org/dc/dcmitype/StillImage" />
        <dc:title></dc:title>
      </cc:Work>
    </rdf:RDF>
  </metadata>
  <g
     inkscape:groupmode="layer"
     id="layer2"
     inkscape:label="Layer 2"
     style="display:inline"
     transform="translate(-56.347916,-105.69794)"
     sodipodi:insensitive="true">
    <path
       id="path67"
       d="m 130.57534,174.37282 c -0.28761,-0.13587 -0.57079,-0.29207 -0.78998,-0.52641 0.5183,-0.67057 1.2317,-1.1616 1.92282,-1.63801 0.0319,-0.12766 0.0976,-0.38428 0.13037,-0.51355 -1.10283,0.11646 -1.97234,0.85924 -2.95622,1.28466 -0.85323,0.0753 -3.16732,-2.04848 -4.99948,-2.75257 -0.54421,-0.22664 -0.63936,-0.86048 -0.82359,-1.34932 -0.48352,-0.32558 -1.00862,-0.58157 -1.55067,-0.78989 1.21215,-0.86877 2.45518,-1.73571 3.35922,-2.94356 0.73066,-2.18567 1.00529,-1.92122 1.13188,-4.55064 0.11161,-1.36437 -0.3288,-4.20227 -1.12071,-4.94221 -1.08898,-0.46014 -1.59624,-1.15804 -2.65537,-1.69681 0.59467,-0.56976 1.40188,-0.87782 1.92823,-1.52417 1.50258,-1.67851 1.81244,-4.86261 0.85731,-6.54316 -0.92319,-0.54677 -1.83159,-1.13416 -2.64114,-1.84179 -0.11749,-0.0391 -0.35184,-0.11932 -0.46963,-0.1575 -0.0182,-0.42867 0.0466,-0.85274 0.1317,-1.27236 0.16538,-0.15632 0.33186,-0.3163 0.49597,-0.47501 -0.0379,-0.24798 -0.0775,-0.49653 -0.11302,-0.74571 0.47466,0.29126 0.62662,0.76993 0.58666,1.30221 0.19904,0.12367 0.39909,0.24389 0.60338,0.36334 0.0273,-0.25492 0.0558,-0.50754 0.083,-0.76253 0.44179,-0.73991 0.55311,-1.59195 0.46692,-2.4354 -0.62216,-0.42232 -1.25292,-0.82972 -1.89585,-1.21731 -0.40821,0.90787 -0.45178,1.98182 -1.05554,2.79263 -0.0279,0.0718 -0.0855,0.21498 -0.11397,0.28664 0.0171,0.35747 0.0283,0.71508 0.0353,1.07334 -0.14779,0.032 -0.29561,0.0641 -0.44339,0.0962 -1.3601,-0.9997 -1.90122,-1.20405 -2.5068,-1.68141 0.0615,-0.95439 0.53228,-2.73498 -0.0387,-4.00706 -0.63936,-0.3419 -4.21676,-2.53738 -4.43061,-2.64793 0.10496,-0.32293 0.22986,-0.64155 0.27122,-0.97858 -0.12983,-0.1747 -0.2649,-0.34514 -0.40581,-0.50955 0.12239,-0.8249 0.59406,-1.51606 0.83944,-2.29429 0.19739,0.28455 0.32477,0.59811 0.26886,0.95022 0.0849,0.0426 0.25719,0.12628 0.34267,0.16708 0.17879,0.19401 0.36046,0.38508 0.53929,0.57912 -0.0641,-0.68722 0.17752,-1.33662 0.38776,-1.97842 -0.40238,-0.5891 -0.38699,-1.35527 -0.84049,-1.91328 -0.32299,-0.16087 -0.63214,-0.34687 -0.93897,-0.53409 -0.21301,0.68222 -0.42563,1.36657 -0.65601,2.04335 -0.8411,0.76608 -0.39894,-0.42467 -0.77047,2.55603 -0.4592,0.10894 -0.88365,0.31347 -1.13727,0.73111 -1.97737,-0.94016 -3.84609,-2.09388 -5.80385,-3.07111 -0.0407,0.11902 -0.1235,0.35444 -0.1632,0.4737 0.74786,1.25299 1.69564,2.82647 0.71448,5.24492 -0.79425,3.00402 -2.0134,4.5738 -3.88323,5.99037 -0.52503,-0.28748 -1.07298,-0.52717 -1.6134,-0.77817 0.17209,0.50857 0.3636,1.01155 0.51849,1.52459 -0.61288,-0.40174 -1.22591,-0.80944 -1.805749,-1.25975 -0.54619,-1.075 0.0164,-2.22929 0.37862,-3.26571 0.210409,-0.0497 0.419499,-0.10767 0.626689,-0.1722 0.0317,-0.27521 0.0295,-0.55521 0.057,-0.82975 0.34157,0.50109 0.17461,1.17424 0.53064,1.68579 0.12793,0.0372 0.38376,0.11156 0.51026,0.14704 -0.003,-0.15243 -0.008,-0.30362 -0.0121,-0.45426 0.31762,-0.49582 0.47741,-1.06505 0.64694,-1.62133 -0.22541,-0.43298 -0.46855,-0.85976 -0.79132,-1.22707 0.031,-0.10819 0.0924,-0.32294 0.12223,-0.43156 0.0919,0.0206 0.27636,0.0656 0.36985,0.0871 0.0689,-0.20843 0.14019,-0.41805 0.20923,-0.62637 -0.12887,-0.73297 -0.60753,-1.30479 -1.13228,-1.7988 -0.20483,-0.0677 -0.40879,-0.13833 -0.61327,-0.2072 -0.27492,1.25872 -0.744079,2.46601 -0.995729,3.73206 -0.26598,0.14409 -0.53166,0.28872 -0.79802,0.43482 -0.002,0.11753 -0.009,0.35133 -0.0125,0.47006 0.63,0.72184 -0.0534,1.598 -0.19082,2.37689 -0.32826,0.0618 -0.693,0.28894 -1.01269,0.0796 -1.423008,-0.74569 -2.604004,-1.85961 -3.991854,-2.66698 0.15047,1.16682 1.03613,1.67223 1.60483,4.79786 0.631446,4.84769 -1.37486,8.71048 -4.06658,10.49583 -0.942397,-2.59873 -2.047546,-12.85053 -3.127698,-13.55513 -0.255888,3.42913 0.674473,6.11832 -2.112829,18.27937 -0.663433,4.42321 -3.436141,6.34116 -5.175555,6.56439 0.262465,-0.49552 0.762426,-0.76472 1.227266,-1.03514 -0.0095,-0.4377 -0.02319,-0.87474 -0.0392,-1.31053 0.272634,-0.19727 0.540532,-0.39803 0.811955,-0.59763 -0.49024,-0.44766 -0.644452,-1.10011 -0.974423,-1.65065 -0.06769,0.13998 -0.204981,0.41922 -0.272683,0.55917 -0.363228,0.13531 -0.730871,0.25934 -1.10345,0.36802 -0.01226,0.0887 -0.03658,0.26579 -0.05009,0.35206 0.08466,0.67971 -0.426963,1.24814 -0.445035,1.923 0.487935,1.04587 0.526649,0.0331 -1.771593,7.45278 0.209025,1.24604 0.69242,2.43896 0.795509,3.70278 -1.35129,1.4581 -0.653872,-0.36818 -1.182337,3.74992 -0.21631,5.03014 -8.219238,1.01478 33.946116,13.25428 0.90153,-2.97932 7.08746,-7.86523 8.51779,-7.57001 2.00329,0.27741 5.49672,0.2216 7.48738,-1.05187 0.7043,-0.64928 1.53259,-1.15527 2.16025,-1.88576 0.28998,-0.37078 0.56261,-0.75495 0.86217,-1.11881 0.48456,-1.13359 0.72138,-3.87563 0.0151,-4.56434 z M 93.428077,154.48375 c -0.21062,0.87381 -0.45039,1.74037 -0.7158,2.60078 -0.27014,0.1705 -0.54301,0.35594 -0.86665,0.40931 -0.002,-0.0101 -0.58006,-2.91536 -0.5823,-2.92551 0.0282,-0.0992 0.0806,-0.29914 0.10617,-0.39925 1.58619,0.17599 0.13014,-0.0599 2.05857,0.31469 z m -13.033285,12.65879 c 0.08652,-0.26778 0.172085,-0.53582 0.258052,-0.80182 0.113155,-0.0469 0.338213,-0.14314 0.451365,-0.19009 -0.139643,0.45952 -0.280792,0.92049 -0.412337,1.38256 -0.07516,-0.0985 -0.222491,-0.29239 -0.297694,-0.39085 z m 1.24146,1.07199 c -0.06971,-0.0909 -0.213836,-0.27003 -0.283557,-0.36081 0.113036,-0.35185 0.225684,-0.70581 0.338714,-1.05764 l 0.356047,0.11226 z m 0.481132,0.28939 c 0.147533,-0.48454 0.298078,-1.00158 0.778058,-1.25741 -0.116481,0.46287 -0.256709,0.92022 -0.400552,1.37643 z m 1.571006,0.68809 c -0.09035,-0.0253 -0.272355,-0.072 -0.362895,-0.0967 l 0.342406,-1.08596 c 0.08944,0.0282 0.268943,0.0827 0.358402,0.11091 z m 0.575335,0.64557 c 0.140102,-0.4377 0.281175,-0.87514 0.42262,-1.31045 l 0.35424,0.11169 c -0.105839,0.34233 -0.213184,0.68611 -0.316723,1.03113 -0.115538,0.0422 -0.344448,0.1254 -0.460044,0.16766 z m 0.919804,0.55753 c -0.02347,-0.5306 0.189073,-1.03005 0.338172,-1.52791 0.546998,0.47342 -0.188334,1.04017 -0.338172,1.52791 z m 1.10049,0.53974 c -0.371257,-0.46323 -0.06854,-0.99918 0.06646,-1.48965 0.08946,0.0282 0.271933,0.0857 0.362003,0.11204 -0.126576,0.46364 -0.231016,0.93821 -0.429021,1.3773 z m 0.668486,0.35637 c 0.04668,-0.52227 0.06833,-1.12127 0.566439,-1.42838 0.130208,0.41675 -9.1e-5,0.83 -0.100292,1.23507 -0.117259,0.0476 -0.348889,0.14565 -0.466159,0.19328 z m -6.168849,-6.38641 c -0.04894,-0.0882 -0.144352,-0.26582 -0.191445,-0.35347 3.114908,-1.19601 8.67226,0.50033 9.182807,1.48109 -0.345632,1.25217 -0.738233,2.49735 -1.198407,3.7134 -1.591379,-0.33149 -6.828091,-4.24857 -7.792932,-4.84104 z m 7.038945,6.91446 c 0.09373,-0.43462 0.219141,-0.85733 0.350556,-1.2801 0.06465,0.10688 0.198045,0.32012 0.262702,0.42702 -0.162837,0.3106 -0.307445,0.65051 -0.613217,0.85307 z m 4.106016,-9.85987 c 0.14333,-0.7416 0.44477,-1.43727 0.6392,-2.16467 l 0.13993,0.0617 c -0.27049,0.69557 -0.32516,1.48674 -0.77906,2.10286 z m 11.583563,-19.47696 c 2.07215,-0.39531 4.40482,-0.13166 5.79286,0.3611 -0.15026,0.46991 -0.26208,0.95592 -0.48094,1.40027 -0.21956,0.17857 -0.46511,0.32735 -0.70041,0.48724 -0.077,0.22752 -0.15356,0.4571 -0.22632,0.68787 -0.3005,-0.25867 -3.65996,-2.25017 -3.69408,-2.27014 -0.20071,-0.23052 -0.84287,-0.2775 -0.69083,-0.66622 z m -8.203607,12.31297 c 0.35252,0.0797 0.708,0.19376 1.07504,0.1462 0.891698,0.21625 1.782248,0.47345 2.585848,0.92544 -0.96509,1.35776 -2.53867,2.00051 -3.979434,2.71459 -0.36467,-0.0599 -0.42032,-0.56331 -0.54549,-0.85255 0.15982,-1.00585 0.59228,-1.95326 0.864066,-2.93365 z m -1.312156,3.75619 c 0.24052,-0.20154 0.67686,0.17399 0.37723,0.39433 -0.23835,0.1943 -0.67694,-0.18 -0.37723,-0.39433 z m -2.81086,8.98976 c 0.50168,0.31157 0.70301,0.87076 0.84891,1.41239 -0.0646,0.17829 -0.12645,0.35748 -0.19114,0.5377 -0.53976,0.40806 -1.08536,0.8222 -1.731865,1.05106 0.138919,-0.28463 0.282075,-0.56407 0.429415,-0.84415 0.0207,-0.76447 0.34504,-1.46866 0.64466,-2.15701 z m -1.217498,5.33988 c -0.179241,-0.40467 -0.126314,-0.83452 -0.0072,-1.24346 0.123317,-0.0417 0.370508,-0.12708 0.493858,-0.16882 -0.147594,0.47477 -0.302412,0.94916 -0.486603,1.41229 z m 0.960358,0.17302 c -0.0894,-0.0282 -0.26774,-0.0865 -0.3572,-0.11473 l 0.33845,-1.07344 0.3578,0.11281 z m -0.38399,-2.11951 c 2.12076,-1.06308 1.33229,0.22271 1.32805,0.45418 -0.44639,-0.14389 -0.88938,-0.29217 -1.32805,-0.45418 z m 2.24708,-2.85365 c 0.008,-0.13346 0.48271,-2.53327 -0.14602,-5.41969 0.29475,-1.02231 0.63166,-2.03331 0.94816,-3.05077 0.60103,-0.21569 1.17487,-0.50089 1.777216,-0.7083 2.254078,2.66871 -0.207376,6.97536 -1.234116,8.17495 -0.22838,0.25646 -0.444,0.52293 -0.63649,0.80833 -0.21598,0.17973 -0.43834,0.47945 -0.70875,0.19547 z m -1.05628,5.47734 c -0.0693,-0.10447 -0.20622,-0.31285 -0.27559,-0.41733 0.13404,-0.36294 0.28839,-0.72144 0.56456,-0.99824 0.0451,0.093 0.13745,0.28136 0.18292,0.37433 -0.16345,0.34382 -0.31679,0.6928 -0.47188,1.04122 z m 6.975864,3.52124 c -0.45624,-0.14384 -0.91244,-0.28769 -1.36926,-0.42964 -0.18013,-0.38326 -0.3584,-0.76599 -0.53382,-1.1517 -0.688198,-0.18207 -3.361374,-1.17883 -3.703024,-1.79896 -0.36635,-0.52858 0.01,-1.15351 -0.0413,-1.73412 -0.26647,-0.11547 -0.58625,-0.1494 -0.80666,-0.3487 0.0431,-0.41121 0.12967,-0.81671 0.13598,-1.22976 1.93829,-1.00224 5.730354,-0.55605 8.282103,0.45754 -0.64688,2.08161 -1.315159,4.15453 -1.963969,6.23555 z m 4.424229,-16.10295 c -2.39192,-0.78574 -4.810469,-1.49315 -7.196197,-2.29842 1.087828,-0.74277 2.508498,-0.65087 3.717748,-1.11732 0.764989,0.0752 0.709909,0.084 1.356239,0.0342 1.70768,0.0435 2.69196,0.24469 3.5531,0.28432 -0.34339,2.82036 -0.88289,2.73335 -1.43089,3.09719 z m 11.83327,-12.38999 c 0.10895,0.0226 0.32618,0.0634 0.43566,0.0843 1.01128,-0.15914 2.65935,0.0793 3.73329,0.41787 l -0.42702,1.35432 c -0.19862,0.10682 -0.3947,0.21563 -0.59213,0.32472 -1.11431,-0.41918 -2.35872,-1.27751 -2.66485,-1.62306 -0.19582,-0.0775 -0.39117,-0.15679 -0.5876,-0.23245 l 0.10268,-0.32567 z m -0.54602,15.43747 c -0.21137,0.17137 -0.418,0.34617 -0.62329,0.52339 -0.84819,-0.38545 -1.94909,-0.36868 -2.58932,-1.10164 2.05028,-0.52468 2.67737,-1.42048 3.37415,-2.21107 l 0.65839,0.20757 c -0.27191,0.86235 -0.54037,1.72381 -0.81933,2.58194 z m -3.78699,-3.23575 c 0.17983,0.0535 0.3605,0.10424 0.54066,0.15673 0.14182,0.27463 0.28543,0.54829 0.43557,0.82156 -0.15235,0.52042 -0.32181,1.04722 -0.66466,1.47804 -1.34433,-0.35896 -2.6679,-0.82746 -3.82875,-1.61238 0.41296,-0.28679 0.89788,-0.42108 1.39989,-0.4162 0.92576,-0.25178 0.6444,-0.13317 2.11761,-0.4279 z m 4.45659,-15.24496 c -0.0171,-0.0643 -0.0524,-0.19554 -0.069,-0.26169 0.1903,-0.0422 0.38195,-0.0822 0.57352,-0.12215 -0.0518,0.82552 -0.21346,1.64391 -0.68928,2.33576 -1.0658,0.89404 -2.0434,1.22773 -3.16094,0.29953 -0.19597,-0.0835 -0.39192,-0.16688 -0.58726,-0.24607 0.0437,-0.12198 0.13051,-0.36404 0.17421,-0.48401 0.11539,0.0269 0.34534,0.0774 0.45911,0.10345 1.11047,-0.52126 2.12368,-1.25803 3.29953,-1.62483 z m -4.66723,-0.64352 c 0.16099,-0.50391 0.3176,-1.00725 0.47668,-1.51175 0.16869,0.0137 0.33739,0.0277 0.50617,0.0416 0.35077,0.1539 0.70547,0.2952 1.06429,0.42994 0.45271,0.72889 0.54184,1.71881 -0.0103,2.42197 -0.47557,0.4854 -1.20474,0.52693 -1.82147,0.72388 -0.22307,-0.0724 -0.44577,-0.14579 -0.6694,-0.2163 0.33466,-0.3626 0.66914,-0.73118 0.87174,-1.18655 -0.14083,-0.2333 -0.27879,-0.46951 -0.41785,-0.7022 z m -4.00208,13.32302 c 0.87025,0.24681 1.71556,0.56649 2.56492,0.87949 -0.87383,0.94989 -2.06651,1.66943 -3.37946,1.7413 0.25563,-0.87925 0.54141,-1.74706 0.81458,-2.62076 z m -0.0618,4.2134 c -0.27562,-0.16753 -0.54431,-0.34474 -0.80664,-0.52971 0.1265,-0.16474 0.26537,-0.31755 0.41435,-0.45943 0.37244,0.17248 0.3877,0.6356 0.39229,0.98914 z m 3.37084,17.14448 c -1.19315,0.39639 -8.57694,-1.68971 -9.07115,-1.87271 -0.0714,-0.75863 1.39108,-4.94043 1.41981,-5.01451 0.48825,-0.32308 3.30241,0.1823 3.87117,0.32364 1.00854,-0.0613 5.19322,1.29282 5.23037,1.30295 -0.16369,1.82291 -1.01033,3.49734 -1.4502,5.26063 z m 10.74331,-29.77524 c 0.42452,0.23808 0.84622,0.48513 1.26674,0.72982 0.45314,0.46549 0.62814,1.08322 0.74924,1.70358 -0.1425,0.45861 -0.43065,0.84177 -0.76935,1.17362 -0.72274,-0.45456 -0.89003,-0.54468 -1.32822,-0.82789 0.0657,-0.20161 0.13225,-0.40284 0.19982,-0.60382 -0.16731,-0.25536 -0.33526,-0.50889 -0.50895,-0.75644 0.12633,-0.47549 0.25562,-0.94807 0.39026,-1.419 z m -3.41385,12.17489 c 0.73606,0.46027 1.62109,0.66653 2.25006,1.29166 0.0777,0.0403 0.23627,0.11779 0.31586,0.15862 0.80907,0.79012 1.35484,1.80405 1.53071,2.92531 -0.0533,0.18581 -0.10552,0.37192 -0.15876,0.55971 -0.25325,0.18573 -0.51013,0.37019 -0.77065,0.54772 -0.65358,-0.34766 -1.42949,-0.45074 -2.01559,-0.91875 -0.45205,-0.18195 -0.92879,-0.29809 -1.36981,-0.50267 -0.16873,-0.52532 -0.46884,-0.98967 -0.69931,-1.48133 0.0157,-0.92938 0.6466,-1.71391 0.91782,-2.58042 z m -4.00815,13.386 c 0.0668,-0.0382 0.2003,-0.11219 0.26693,-0.14796 1.44017,0.293 2.38578,0.88532 3.55393,1.67916 -0.0403,0.11121 -0.12332,0.32893 -0.16373,0.43816 -1.43854,0.95671 -2.92692,1.91547 -4.65014,2.25921 -10e-4,-0.79111 0.58707,-3.29189 0.99299,-4.22861 z m 0.92924,4.70091 c -0.34157,-0.027 -0.68196,-0.0518 -1.02307,-0.0865 0.88627,-0.44986 2.07036,-0.56174 3.48714,-0.81633 1.13676,0.10924 0.82513,-0.0642 1.90806,0.14922 -0.7111,0.62209 -0.67124,0.89689 -4.37213,0.75362 z m 9.24028,2.16604 c -0.3715,0.1855 -0.75493,0.34812 -1.16859,0.41242 -0.79992,-0.0831 -1.61288,-0.0562 -2.39638,-0.25991 0.16224,-0.52122 0.32298,-1.04098 0.47703,-1.56281 -0.0808,-0.25556 -0.15731,-0.5118 -0.22791,-0.76816 0.47693,-0.1151 0.92961,-0.29696 1.35212,-0.54537 0.6912,0.3281 1.40779,0.61306 2.06051,1.01949 0.0823,0.17548 0.16714,0.34966 0.25299,0.52628 -0.006,0.21252 -0.008,0.42432 -0.008,0.63673 -0.11392,0.18044 -0.22962,0.36032 -0.34173,0.54138 z"
       inkscape:connector-curvature="0"
       style="stroke-width:0.03847478" />
  </g>
  <g
     inkscape:label="Layer 1"
     inkscape:groupmode="layer"
     id="layer1"
     style="display:inline"
     transform="translate(-56.347916,-105.69794)"
     sodipodi:insensitive="true">
    <path
       id="path77"
       d="m 103.61711,105.69794 -2.14974,12.24518 0.008,0.008 c -2.627837,0.42942 -5.170217,1.1176 -7.598557,2.03411 v -0.008 l -7.978777,-9.53346 -7.49935,4.33255 4.2582,11.67474 0.0164,0.008 c -2.03305,1.66899 -3.89651,3.53907 -5.56445,5.57293 l -0.008,-0.0249 -11.67474,-4.25822 -4.33255,7.49936 9.5332,7.98724 c -0.91493,2.42623 -1.59702,4.96491 -2.02565,7.59011 l -0.008,-0.008 -12.24518,2.14974 v 8.6651 l 12.24518,2.14974 0.008,-0.008 c 0.42863,2.62519 1.11072,5.16387 2.02565,7.59037 l -9.5332,7.98697 4.33255,7.49935 11.67474,-4.2582 0.008,-0.0249 c 1.66794,2.03385 3.5314,3.90393 5.56445,5.57265 l -0.0164,0.008 -4.2582,11.67474 7.49935,4.33255 7.978777,-9.53293 v -0.008 c 2.42834,0.91651 4.97072,1.6047 7.598557,2.03411 l -0.008,0.008 2.14974,12.24518 h 8.65691 l 2.14974,-12.24518 -0.008,-0.008 c 2.62704,-0.42836 5.17022,-1.11072 7.59856,-2.02565 l 7.98698,9.53321 7.49935,-4.33256 -4.2664,-11.67474 c 2.02856,-1.66475 3.89096,-3.52821 5.55625,-5.55625 l 11.68294,4.25821 4.32435,-7.49935 -9.525,-7.98724 c 0.91519,-2.42676 1.60522,-4.96464 2.03385,-7.59011 l 12.24544,-2.1415 v -8.6651 l -12.24544,-2.14974 c -0.42889,-2.62282 -1.11972,-5.15779 -2.03386,-7.5819 l 9.525,-7.98724 -4.32435,-7.4991 -11.68294,4.25795 c -1.66528,-2.02803 -3.52769,-3.8915 -5.55625,-5.55626 l 4.26641,-11.67474 -7.49935,-4.33255 -7.98698,9.5332 c -2.42834,-0.91493 -4.97152,-1.59729 -7.59857,-2.02565 l 0.008,-0.008 -2.14973,-12.24518 h -8.65691 z m 4.33256,21.08385 c 16.8566,0 30.52762,13.6615 30.52762,30.51705 0,16.8566 -13.6697,30.51704 -30.52762,30.51704 -16.856607,0 -30.517044,-13.66149 -30.517044,-30.51704 0,-16.8566 13.661237,-30.51705 30.517044,-30.51705 z"
       inkscape:connector-curvature="0"
       style="stroke-width:0.52916664;stroke-linecap:round;stroke-linejoin:round" />
  </g>
  <g
     inkscape:groupmode="layer"
     id="layer4"
     inkscape:label="Text"
     sodipodi:insensitive="true"
     style="display:inline"
     transform="translate(-56.347916,-88.09794)">
    <text
       xml:space="preserve"
       style="font-style:normal;font-weight:normal;font-size:10.58333302px;line-height:1.25;font-family:sans-serif;letter-spacing:0px;word-spacing:0px;fill:#000000;fill-opacity:1;stroke:none;stroke-width:0.26458332"
       id="text210"><textPath
         xlink:href="#path39"
         id="textPath4566"><tspan
   style="font-style:normal;font-variant:normal;font-weight:bold;font-stretch:normal;font-size:5.64444447px;font-family:Cinzel;-inkscape-font-specification:'Cinzel, Bold';font-variant-ligatures:normal;font-variant-caps:normal;font-variant-numeric:normal;font-feature-settings:normal;text-align:start;writing-mode:lr-tb;text-anchor:start;fill:#ffffff;stroke-width:0.26458332"
   id="tspan208">San Leandro High Makers Club</tspan></textPath></text>
    <circle
       id="path39"
       cx="-124.1705"
       cy="-125.5029"
       style="fill:none;fill-opacity:1;stroke-width:0.73561817"
       r="33.363476"
       transform="rotate(-173)" />
  </g>
  <circle
     style="fill:#ffffff;fill-opacity:1;stroke-width:0.07165797"
     id="path4575"
     cx="17.020714"
     cy="51.602058"
     r="0.86862582" />
  <circle
     style="fill:#ffffff;fill-opacity:1;stroke-width:0.07165797"
     id="path4575-8"
     cx="86.182709"
     cy="51.602058"
     r="0.86862582" />
</svg>
