<?xml version="1.0" encoding="UTF-8" standalone="no"?>
<svg
   xmlns:dc="http://purl.org/dc/elements/1.1/"
   xmlns:cc="http://creativecommons.org/ns#"
   xmlns:rdf="http://www.w3.org/1999/02/22-rdf-syntax-ns#"
   xmlns:svg="http://www.w3.org/2000/svg"
   xmlns="http://www.w3.org/2000/svg"
   style="enable-background:new"
   id="svg8"
   version="1.1"
   viewBox="0 0 101.6004 101.6014"
   height="4.0000553in"
   width="4.0000157in">
  <defs
     id="defs2" />
  <metadata
     id="metadata5">
    <rdf:RDF>
      <cc:Work
         rdf:about="">
        <dc:format>image/svg+xml</dc:format>
        <dc:type
           rdf:resource="http://purl.org/dc/dcmitype/StillImage" />
        <dc:title></dc:title>
      </cc:Work>
    </rdf:RDF>
  </metadata>
  <g
     style="display:inline"
     transform="translate(-73.5922,192.90403)"
     id="layer3">
    <path
       id="path77"
       d="m 120.13246,-192.90403 8.52305,0.003 2.11613,12.05426 -0.008,0.01 c 2.58696,0.42275 5.08988,1.10003 7.48044,2.00227 v -0.01 l 7.85455,-9.38512 7.38285,4.26478 -4.19322,11.49311 -0.0146,0.01 c 2.00143,1.64305 3.83623,3.48241 5.47818,5.48468 l 0.01,-0.0244 11.49311,-4.19321 4.26478,7.38285 -9.38512,7.86431 c 0.9007,2.38854 1.57215,4.88627 1.99414,7.47068 l 0.01,-0.008 12.05429,2.11453 v 8.53118 l -12.05427,2.11613 -0.01,-0.01 c -0.42199,2.58441 -1.09343,5.08351 -1.99413,7.47231 l 9.38512,7.86268 -4.26478,7.38285 -11.49311,-4.19159 -0.01,-0.0244 c -1.64195,2.00226 -3.47675,3.84352 -5.47818,5.48631 l 0.0146,0.008 4.19322,11.49474 -7.38286,4.264782 -7.85454,-9.385122 v -0.008 c -2.39056,0.90227 -4.89348,1.58118 -7.48044,2.00389 l 0.008,0.008 -2.11613,12.055898 h -8.52142 l -2.11613,-12.055898 0.008,-0.008 c -2.58621,-0.4217 -5.08988,-1.09506 -7.48044,-1.99576 l -7.86268,9.385122 -7.38285,-4.264782 4.20134,-11.49311 c -1.99699,-1.63889 -3.83064,-3.47352 -5.47004,-5.47004 l -11.50124,4.19158 -4.25828,-7.38122 9.37699,-7.86431 c -0.90096,-2.38905 -1.58031,-4.88764 -2.00227,-7.47231 l -12.05432,-2.10782 v -8.53118 l 12.05427,-2.1145 c 0.42223,-2.58205 1.10235,-5.07774 2.00226,-7.46418 l -9.37698,-7.8643 4.25827,-7.38123 11.50124,4.19159 c 1.63798,-1.99652 3.47143,-3.83115 5.46842,-5.47005 l -4.19972,-11.49473 7.38285,-4.26478 7.86106,9.38512 c 2.39055,-0.90023 4.89426,-1.57084 7.48044,-1.99251 l -0.008,-0.01 z m 2.99933,14.55914 c -0.33958,0.0105 -0.62252,0.0923 -0.84742,0.24398 -0.22501,0.14751 -0.39067,0.33876 -0.49935,0.57579 l 0.43917,0.29603 c 0.09,-0.19641 0.21893,-0.34511 0.38549,-0.4473 0.16654,-0.10219 0.34994,-0.15737 0.55302,-0.16428 0.16646,-0.006 0.31972,0.0249 0.45868,0.0943 0.13885,0.0653 0.25888,0.15659 0.35947,0.27326 0.10047,0.11331 0.18055,0.24711 0.2391,0.40175 0.0552,0.15486 0.0853,0.3166 0.0911,0.48634 0.006,0.17983 -0.0169,0.34916 -0.0683,0.50748 -0.0547,0.15842 -0.13013,0.29806 -0.22609,0.41802 -0.0993,0.12002 -0.21712,0.21666 -0.35458,0.29115 -0.13759,0.0713 -0.28905,0.10999 -0.45218,0.11548 -0.17979,0.006 -0.35131,-0.0293 -0.51724,-0.10735 -0.16925,-0.0776 -0.33208,-0.20425 -0.48796,-0.37898 l -0.013,-0.37898 0.74333,-0.026 -0.013,-0.41314 -1.21339,0.0407 0.0602,1.79245 0.46845,-0.0163 -0.0146,-0.43916 c 0.31005,0.29952 0.66122,0.4425 1.05074,0.4294 0.23638,-0.008 0.45403,-0.0629 0.65387,-0.1659 0.19972,-0.1066 0.37139,-0.2464 0.51561,-0.41802 0.14422,-0.17144 0.25591,-0.36774 0.33507,-0.59043 0.0758,-0.22254 0.10892,-0.45482 0.10084,-0.69454 -0.008,-0.23971 -0.0558,-0.4663 -0.14639,-0.67989 -0.0938,-0.21349 -0.21879,-0.39818 -0.3741,-0.55627 -0.1553,-0.15801 -0.33858,-0.28125 -0.54814,-0.3676 -0.20967,-0.0896 -0.43524,-0.13015 -0.67827,-0.12199 z m 2.67403,0.0293 -0.16428,3.54259 0.55953,0.026 0.16428,-3.54422 z m 1.7713,0.0829 -0.4538,3.5182 0.55952,0.0716 0.20007,-1.55009 1.77455,0.22772 -0.20006,1.55171 0.55465,0.0716 0.4538,-3.5182 -0.55465,-0.0716 -0.1903,1.47202 -1.77456,-0.22934 0.19031,-1.47202 z m -7.09821,0.0765 -0.55302,0.0829 0.21958,1.46877 -1.76804,0.26512 -0.22121,-1.46713 -0.5579,0.083 0.52699,3.50844 0.55791,-0.0829 -0.2326,-1.54684 1.76967,-0.26675 0.2326,1.54683 0.55302,-0.083 z m -5.67986,1.06864 -0.56929,0.18542 -0.44405,2.42517 -1.78919,-1.69648 -0.56929,0.18542 1.09954,3.37344 0.53676,-0.17566 -0.79212,-2.4268 1.60214,1.51106 0.2944,-0.096 0.40826,-2.16655 0.79212,2.4268 0.53188,-0.17404 z m 19.51681,0.14638 c -0.11776,-0.007 -0.23229,-5.7e-4 -0.34645,0.0212 -0.23057,0.0392 -0.44062,0.11944 -0.62947,0.24073 -0.19204,0.12023 -0.35785,0.27386 -0.49609,0.45868 -0.14049,0.18067 -0.24228,0.37644 -0.30579,0.59043 -0.0673,0.22673 -0.0897,0.45743 -0.0683,0.68965 0.0183,0.23126 0.0762,0.44735 0.17567,0.65062 0.10045,0.20018 0.23712,0.3781 0.40989,0.5335 0.17051,0.15129 0.37195,0.26254 0.60507,0.33182 0.2427,0.072 0.47954,0.0898 0.70917,0.0537 0.22737,-0.0403 0.43675,-0.11897 0.62784,-0.23585 0.19204,-0.12023 0.35953,-0.27318 0.50098,-0.45706 0.13823,-0.18486 0.23807,-0.3847 0.30253,-0.60181 0.0673,-0.22673 0.0914,-0.45743 0.0699,-0.68966 -0.0214,-0.2322 -0.081,-0.44829 -0.17729,-0.65061 -0.0995,-0.20333 -0.23449,-0.38057 -0.40501,-0.53188 -0.17276,-0.15549 -0.37689,-0.26815 -0.61321,-0.33832 -0.12135,-0.036 -0.2417,-0.0579 -0.35946,-0.0651 z m -0.0211,0.51074 c 0.0787,0.004 0.15929,0.0182 0.24073,0.0423 0.17244,0.0512 0.31382,0.13392 0.42615,0.24723 0.11327,0.10995 0.20011,0.23642 0.25862,0.37898 0.0585,0.14248 0.091,0.29671 0.0976,0.46194 0.004,0.16115 -0.0162,0.31845 -0.0618,0.47169 -0.0474,0.15969 -0.11906,0.3075 -0.2147,0.44242 -0.0957,0.13493 -0.20671,0.24596 -0.33344,0.33344 -0.12993,0.0865 -0.27281,0.14524 -0.42778,0.17567 -0.15404,0.0273 -0.31378,0.0152 -0.47983,-0.0342 -0.17244,-0.0512 -0.31444,-0.13162 -0.42453,-0.24073 -0.11232,-0.11331 -0.1962,-0.24153 -0.25374,-0.38712 -0.0575,-0.14562 -0.0884,-0.29917 -0.0927,-0.46031 -0.004,-0.16115 0.0162,-0.31845 0.0618,-0.47169 0.0483,-0.16283 0.11838,-0.31064 0.21308,-0.44242 0.0956,-0.13492 0.20934,-0.24359 0.33832,-0.32693 0.12672,-0.0875 0.26723,-0.14513 0.42127,-0.17242 0.0759,-0.0157 0.1523,-0.0221 0.23097,-0.0179 z m 3.47265,0.75146 c -0.15173,0.008 -0.29434,0.044 -0.42615,0.10735 -0.1305,0.0604 -0.24611,0.14546 -0.3497,0.25374 -0.10536,0.10366 -0.18656,0.22097 -0.24236,0.35296 -0.0467,0.11037 -0.0757,0.22239 -0.0878,0.33669 -0.0122,0.11415 -0.009,0.22574 0.01,0.33507 0.0189,0.10932 0.0548,0.21267 0.10735,0.31066 0.0538,0.0951 0.12116,0.17957 0.20332,0.25049 l -1.29473,0.91737 0.58556,0.2456 1.189,-0.83604 0.75471,0.31881 -0.48146,1.13695 0.51562,0.21795 1.38255,-3.26771 -1.42159,-0.60019 c -0.14726,-0.0623 -0.29537,-0.0892 -0.44405,-0.0797 z m 0.0683,0.51723 c 0.0756,-0.008 0.14719,0.001 0.2147,0.0309 l 0.87508,0.37085 -0.51562,1.21828 -0.90272,-0.38061 c -0.0736,-0.0311 -0.13359,-0.0747 -0.17892,-0.13013 -0.0471,-0.0598 -0.0796,-0.12683 -0.0992,-0.20006 -0.0183,-0.0764 -0.0244,-0.15658 -0.0179,-0.24073 0.007,-0.0839 0.0267,-0.1676 0.0618,-0.25049 0.035,-0.0829 0.0846,-0.15405 0.14639,-0.2147 0.0588,-0.0619 0.12436,-0.11013 0.19681,-0.14476 0.0694,-0.0357 0.14217,-0.055 0.21958,-0.0586 z m -28.60591,0.14151 -0.44241,0.2082 0.23422,3.8061 0.53513,-0.25049 -0.0699,-1.03122 1.24105,-0.58068 0.74333,0.71731 0.53838,-0.25212 z m 0.0521,0.68803 1.17924,1.13044 -1.05074,0.49122 z m 31.80043,0.40013 c -0.10938,0.0115 -0.21406,0.035 -0.31555,0.0699 -0.20589,0.0682 -0.39495,0.17997 -0.56441,0.33345 -0.16785,0.15045 -0.31097,0.33084 -0.42941,0.54326 -0.13142,0.23566 -0.2145,0.4701 -0.24886,0.70266 -0.0356,0.22805 -0.0254,0.44737 0.0293,0.65712 0.0563,0.2069 0.1569,0.39962 0.30091,0.57905 0.14563,0.17647 0.33294,0.32878 0.56279,0.45706 l 1.09953,0.6132 1.72739,-3.09855 -1.09954,-0.61321 c -0.2502,-0.13954 -0.49056,-0.2199 -0.72219,-0.24235 -0.11726,-0.012 -0.23056,-0.0131 -0.33994,-0.002 z m -34.38825,0.18217 -0.4782,0.28952 0.94339,1.56148 -2.37474,-0.70104 -0.52863,0.32043 2.00878,0.61808 -0.24073,2.45933 0.5335,-0.32368 0.18055,-2.01854 0.75797,0.20007 0.55302,0.91574 0.47983,-0.28953 z m 34.73632,0.33832 c 0.15593,0.0147 0.31332,0.0672 0.47333,0.15615 l 0.61157,0.33994 -1.24592,2.23486 -0.61158,-0.33994 c -0.16292,-0.0909 -0.29121,-0.19864 -0.38549,-0.32368 -0.0956,-0.12968 -0.15785,-0.26889 -0.18705,-0.41477 -0.0305,-0.15045 -0.0293,-0.3057 0.003,-0.46682 0.0326,-0.16115 0.093,-0.32151 0.18217,-0.48145 0.0909,-0.16283 0.19762,-0.29901 0.32043,-0.40989 0.1199,-0.11247 0.25117,-0.19351 0.39199,-0.24073 0.14244,-0.0502 0.29136,-0.0682 0.4473,-0.0537 z m 2.94892,1.05724 -2.07384,2.87247 0.37573,0.27163 3.09205,-0.85068 -1.46226,2.02666 0.4538,0.32694 2.07547,-2.87572 -0.35622,-0.25862 -3.14247,0.88809 1.49479,-2.07058 z m -19.98852,0.20495 v 0.005 c -16.5943,0 -30.05352,13.44849 -30.05352,30.04213 0,7.56849 2.80572,14.477 7.42514,19.75917 -0.15454,-1.17315 -0.1048,-2.50116 0.35459,-2.95053 0.28265,-0.13377 0.56203,-0.28856 0.77748,-0.51887 -0.51021,-0.66016 -1.21291,-1.14288 -1.89329,-1.6119 -0.0315,-0.12558 -0.0944,-0.37863 -0.12687,-0.50585 1.08572,0.11489 1.93966,0.84663 2.90825,1.26545 0.83995,0.074 3.1183,-2.01666 4.9219,-2.70981 0.53574,-0.22317 0.63035,-0.84766 0.81164,-1.32888 0.47604,-0.32052 0.99206,-0.5724 1.5257,-0.77749 -1.1933,-0.85528 -2.41676,-1.70938 -3.30675,-2.89849 -0.71931,-2.15169 -0.98954,-1.89094 -1.11418,-4.47948 -0.10985,-1.34318 0.32321,-4.13654 1.10279,-4.86497 1.07199,-0.453 1.57279,-1.14006 2.61547,-1.67046 -0.58541,-0.56092 -1.37999,-0.86498 -1.89817,-1.50129 -1.47918,-1.65243 -1.78447,-4.78664 -0.84417,-6.44109 0.90879,-0.53829 1.80222,-1.11694 2.59921,-1.81358 0.11583,-0.0384 0.34598,-0.11707 0.46193,-0.15453 0.0189,-0.42092 -0.0448,-0.8371 -0.12849,-1.24918 0.039,0.0371 0.0752,0.0712 0,-0.002 v -0.002 c -0.0812,-0.0768 -0.0422,-0.0372 -0.002,0.002 -0.46697,0.28454 -0.99243,-0.44549 -0.95315,0.0781 -0.19609,0.12181 -0.39256,0.24015 -0.59368,0.35784 -0.0283,-0.25086 -0.0562,-0.49882 -0.083,-0.74983 -0.43489,-0.72841 -0.54354,-1.56717 -0.45868,-2.39752 0.61248,-0.41576 1.23273,-0.81718 1.86564,-1.19876 0.40187,0.89378 0.445,1.95064 1.03935,2.74885 0.0283,0.0708 0.0842,0.2122 0.11223,0.28302 -0.0157,0.35193 -0.0285,0.70291 -0.0358,1.05562 0.14542,0.0315 0.29212,0.0642 0.43754,0.096 1.33893,-0.98418 1.87131,-1.18589 2.46745,-1.65582 -0.0604,-0.93957 -0.52455,-2.69204 0.0374,-3.94435 0.62942,-0.3366 4.15184,-2.49853 4.36237,-2.60734 -0.10323,-0.31793 -0.22614,-0.63113 -0.26675,-0.96291 -0.001,-0.009 -4.9e-4,-0.002 -0.002,-0.01 -0.006,0.006 -0.005,0.01 -0.0114,0.013 -0.21372,0.19011 -1.07066,-2.00789 -1.01658,-1.6672 v 0.002 c -0.17564,0.19074 -0.35606,0.37846 -0.53188,0.56929 0.063,-0.67656 -0.17519,-1.31678 -0.38224,-1.94859 0.39612,-0.57997 0.38146,-1.33419 0.82791,-1.88353 0.31797,-0.15832 0.62184,-0.34108 0.92387,-0.52537 0.20963,0.67159 0.41896,1.34579 0.64574,2.01202 0.82799,0.75419 0.39388,-0.41813 0.75959,2.51626 0.45205,0.10733 0.8694,0.30792 1.11906,0.71893 1.9466,-0.92554 3.78672,-2.06006 5.71402,-3.02211 0.04,0.11709 0.12037,0.34779 0.1594,0.46519 -0.73621,1.23349 -1.66855,2.78339 -0.70266,5.16426 0.78191,2.95733 1.98165,4.50327 3.82236,5.89782 0.57421,0.28454 0.93614,0.68428 1.05562,0.78887 0.0416,-0.13314 0.11474,-0.3586 0.0244,-0.0553 -0.0189,0.0519 -0.0117,0.0359 -0.0212,0.0586 0.0488,0.0425 0.0665,0.044 0.0212,-0.0586 0.60335,-0.39549 1.20702,-0.79612 1.7778,-1.23942 0.53666,-1.05622 -0.0121,-2.19036 -0.37085,-3.20916 0.05,0.0126 0.0957,0.025 -0.003,-0.006 -0.0973,-0.022 -0.0527,-0.009 -0.003,0.003 -0.33631,0.48554 -0.84143,0.16682 -1.19062,0.6685 -0.1259,0.0365 -0.37805,0.10983 -0.5026,0.14476 0.003,-0.15013 0.01,-0.29904 0.013,-0.44729 -0.31255,-0.48809 -0.47072,-1.04799 -0.63761,-1.59564 0.22191,-0.42598 -0.0236,-1.18496 0.29278,-1.54683 -0.0677,-0.20522 -0.13727,-0.41137 -0.20494,-0.61646 0.12684,-0.72157 0.59763,-1.28494 1.11417,-1.7713 0.20176,-0.0667 0.4022,-0.13564 0.60345,-0.20332 0.27069,1.23916 0.73306,2.42633 0.9808,3.67272 0.26188,0.14196 0.5234,0.28573 0.78562,0.42941 0.002,0.11583 0.01,0.34504 0.013,0.46194 -0.62022,0.71059 0.0533,1.57218 0.18868,2.33896 0.3231,0.0607 0.68075,0.28586 0.99544,0.0797 1.40088,-0.73411 2.56346,-1.83205 3.92972,-2.62686 -0.14825,1.14866 -1.01949,1.64639 -1.57937,4.72346 -0.62161,4.77237 1.35306,8.5758 4.00291,10.33339 0.9277,-2.55835 2.01567,-12.65045 3.07903,-13.34411 0.2518,3.37583 -0.66359,6.0223 2.08034,17.99438 0.65312,4.35446 3.38196,6.24247 5.09432,6.46223 -0.25842,-0.48784 -0.71186,-2.04184 -1.16948,-2.30806 0.003,-0.21466 0.001,-0.10851 -0.002,-0.002 -0.26786,-0.19389 -0.53041,-0.39115 -0.79701,-0.58718 0.48265,-0.44072 0.6348,-1.08294 0.95966,-1.62491 0.0667,0.13786 1.28824,0.77472 1.3549,0.91249 0.17532,0.0652 0.0886,0.04 0,0.01 0.0126,0.0897 0.0359,0.25438 0.0488,0.33669 -0.0834,0.66914 0.41976,1.22728 0.43754,1.89166 -0.39152,0.83936 -0.41577,0.57895 0.78725,4.32008 0.96198,-2.94188 1.48991,-6.08092 1.48991,-9.34445 0,-16.59465 -13.44859,-30.04214 -30.04214,-30.04214 z m -5.93198,6.69645 c -0.0617,0.0721 -0.0397,0.0408 -0.0114,0.005 0.003,-0.003 0.008,-3e-5 0.0114,-0.005 z m -14.96414,-6.28169 -1.90955,1.43623 0.29766,0.39525 1.46225,-1.09954 0.6067,0.80677 -1.26544,0.95152 0.27813,0.37248 1.26708,-0.95315 0.65061,0.86694 -1.49641,1.12556 0.29765,0.39525 1.94371,-1.46225 z m -2.76023,2.15028 -1.13532,1.04749 c -0.11743,0.10849 -0.20109,0.23309 -0.25374,0.37248 -0.0551,0.14164 -0.0817,0.28476 -0.0781,0.43103 10e-4,0.14395 0.0304,0.2857 0.0862,0.42453 0.0511,0.1387 0.12562,0.26072 0.22284,0.36597 0.0814,0.0881 0.17094,0.16145 0.27,0.21958 0.0991,0.0581 0.20169,0.1008 0.30904,0.1285 0.10733,0.0277 0.21747,0.0376 0.32856,0.0309 0.10882,-0.0105 0.21222,-0.0381 0.31067,-0.083 l 0.30254,1.55822 0.46682,-0.43103 -0.27326,-1.42973 0.60182,-0.55627 0.83766,0.9076 0.41152,-0.3806 z m 47.90151,0.5514 -3.42386,1.68021 0.43591,0.39688 0.92713,-0.46031 1.01171,0.92224 -0.37573,0.96291 0.43916,0.40013 1.3484,-3.57187 z m -47.97796,0.19193 0.89948,0.97267 -0.71893,0.66363 c -0.0587,0.0543 -0.12284,0.0905 -0.19193,0.10897 -0.0738,0.0189 -0.14789,0.0224 -0.22284,0.01 -0.0772,-0.0147 -0.15387,-0.0422 -0.22771,-0.083 -0.0739,-0.0407 -0.14065,-0.0935 -0.20169,-0.1594 -0.061,-0.0661 -0.10684,-0.14 -0.13663,-0.22121 -0.0323,-0.0791 -0.0489,-0.15894 -0.0504,-0.2391 -0.004,-0.0781 0.009,-0.1527 0.0374,-0.22446 0.0241,-0.0722 0.0633,-0.13407 0.11711,-0.1838 z m 47.72585,0.45055 -0.59206,1.52244 -0.85556,-0.78074 z m 2.1698,1.18249 -0.3676,0.33019 1.2199,1.36304 -0.75146,0.67338 -1.05724,-1.18086 -0.34646,0.31067 1.05725,1.17924 -0.80839,0.72381 -1.24918,-1.39557 -0.36922,0.32856 1.62328,1.81359 2.64313,-2.36662 z m -52.29804,0.57254 c -0.0722,-0.004 -0.1435,1.1e-4 -0.2147,0.013 -0.1471,0.0256 -0.29077,0.0827 -0.42941,0.16916 -0.13864,0.0865 -0.26903,0.19783 -0.39037,0.33507 -0.15884,0.17962 -0.27577,0.37111 -0.35296,0.57416 -0.0772,0.20292 -0.12487,0.39891 -0.14151,0.58881 l 0.51399,0.11386 c -0.006,-0.0493 -0.002,-0.10994 0.01,-0.1838 0.009,-0.0762 0.0286,-0.15968 0.0585,-0.24886 0.0277,-0.0867 0.0678,-0.17563 0.11874,-0.26838 0.0487,-0.0902 0.10833,-0.17542 0.17892,-0.25537 0.15664,-0.17731 0.30414,-0.27992 0.44404,-0.30741 0.1377,-0.025 0.26418,0.0123 0.37899,0.11386 0.0649,0.0573 0.10812,0.11801 0.12849,0.18054 0.0157,0.0627 0.0145,0.13607 -0.002,0.21959 -0.0187,0.0814 -0.0515,0.17384 -0.0992,0.27813 -0.0503,0.10219 -0.11093,0.22048 -0.18055,0.35459 -0.0867,0.16346 -0.15649,0.31608 -0.21145,0.45868 -0.0571,0.14521 -0.0904,0.28111 -0.0992,0.40664 -0.009,0.12569 0.0106,0.24622 0.0602,0.36109 0.0448,0.1152 0.12742,0.22586 0.24723,0.33181 0.13478,0.11919 0.27436,0.19577 0.41802,0.22934 0.14145,0.0361 0.2827,0.0363 0.42453,0.002 0.13713,-0.0344 0.273,-0.0978 0.40663,-0.18868 0.13115,-0.093 0.25659,-0.20673 0.37573,-0.34157 0.17872,-0.20208 0.32164,-0.42417 0.42941,-0.66688 0.10307,-0.24234 0.16326,-0.49065 0.18055,-0.74658 l -0.52863,-0.12687 c 0.004,0.0611 0,0.13895 -0.013,0.23422 -0.0153,0.0978 -0.0409,0.20171 -0.0764,0.31229 -0.0403,0.11101 -0.0907,0.22463 -0.14965,0.34158 -0.0614,0.11478 -0.13725,0.22307 -0.22771,0.3253 -0.14561,0.16472 -0.28606,0.26676 -0.4229,0.30579 -0.13684,0.039 -0.2618,0.01 -0.3741,-0.0895 -0.0674,-0.0596 -0.10795,-0.12699 -0.122,-0.20169 -0.0162,-0.0722 -0.0129,-0.15454 0.01,-0.24561 0.0201,-0.0932 0.0569,-0.19651 0.10897,-0.31066 0.052,-0.11415 0.11227,-0.24263 0.1838,-0.38387 0.082,-0.16329 0.14928,-0.31126 0.20011,-0.44408 0.0461,-0.13262 0.0708,-0.25414 0.0732,-0.3676 0.002,-0.11352 -0.017,-0.21997 -0.0585,-0.3188 -0.0462,-0.0986 -0.12288,-0.19515 -0.22772,-0.2879 -0.12978,-0.11478 -0.26593,-0.19094 -0.40988,-0.22934 -0.0732,-0.0203 -0.14575,-0.0321 -0.21796,-0.0358 z m 55.6113,3.44338 -2.45608,1.81034 -1.13044,-1.5322 -0.3985,0.2944 1.46226,1.98275 2.8562,-2.10636 z m -58.39756,0.59694 c -0.10999,-0.005 -0.21873,-0.001 -0.32856,0.0146 -0.22427,0.0321 -0.43922,0.10927 -0.64248,0.23097 -0.20327,0.12171 -0.37905,0.2949 -0.527,0.52049 -0.17718,0.27021 -0.26864,0.54089 -0.27488,0.81164 -0.006,0.27078 0.0555,0.51819 0.18379,0.74171 l 0.48797,-0.20657 c -0.0617,-0.10031 -0.10394,-0.19904 -0.12687,-0.29766 -0.0229,-0.0986 -0.0306,-0.19452 -0.0211,-0.2879 0.009,-0.0934 0.0329,-0.1824 0.0683,-0.26675 0.0326,-0.0862 0.0715,-0.16456 0.11712,-0.23422 0.10229,-0.15591 0.22356,-0.27137 0.36434,-0.34645 0.13801,-0.0768 0.28476,-0.12179 0.44079,-0.13501 0.15421,-0.0105 0.30964,0.005 0.46519,0.0472 0.15371,0.0451 0.29475,0.10963 0.4229,0.19356 0.14485,0.0951 0.26609,0.21008 0.36597,0.3432 0.0999,0.13325 0.17246,0.2736 0.21796,0.4229 0.0437,0.15213 0.0577,0.30802 0.0423,0.46519 -0.0183,0.15528 -0.073,0.30144 -0.16428,0.44079 -0.0475,0.0724 -0.10312,0.14074 -0.16916,0.20495 -0.0707,0.0652 -0.14956,0.12021 -0.23423,0.16428 -0.0893,0.0451 -0.18338,0.0777 -0.28301,0.096 -0.10148,0.0212 -0.20851,0.0235 -0.32043,0.006 l -0.0325,0.5335 c 0.14248,0.0256 0.2848,0.0233 0.42778,-0.006 0.14019,-0.0315 0.27527,-0.0826 0.40501,-0.1529 0.12974,-0.0703 0.25008,-0.15622 0.36109,-0.25862 0.1092,-0.0997 0.20307,-0.20828 0.27976,-0.32531 0.13701,-0.20899 0.21664,-0.42928 0.24073,-0.66037 0.0241,-0.23116 0.006,-0.45649 -0.0537,-0.67501 -0.0627,-0.22033 -0.16225,-0.42484 -0.29766,-0.61321 -0.1382,-0.19011 -0.30179,-0.34739 -0.49121,-0.47169 -0.17828,-0.11688 -0.37617,-0.20112 -0.59369,-0.25212 -0.11015,-0.0264 -0.2202,-0.0418 -0.33019,-0.0472 z m 36.8004,1.72576 c 5.6e-4,0.002 -6.3e-4,0.003 0,0.006 0.0126,0.113 0.004,0.0626 -0.002,0 -0.001,-4e-4 -0.002,-0.001 -0.003,-0.002 v -0.002 c 9.2e-4,-0.001 0.002,-0.002 0.003,-0.003 z m 23.45141,0.49609 -3.13434,1.65256 0.21796,0.41152 3.14735,0.60995 -2.21047,1.16623 0.26187,0.49446 3.13759,-1.65581 -0.20494,-0.38874 -3.21078,-0.6002 2.25926,-1.19062 z m -62.97626,0.59694 -0.26024,0.49447 2.7033,1.41997 -0.88646,1.68509 0.43916,0.23097 1.14508,-2.18119 z m -1.42647,2.78789 -0.20983,0.51886 1.67046,0.67013 c 0.15148,0.0609 0.29185,0.13481 0.4229,0.21959 0.12672,0.0867 0.23317,0.18497 0.31717,0.29765 0.0797,0.11457 0.13078,0.24385 0.1529,0.38549 0.0178,0.14353 -0.008,0.30004 -0.0764,0.47007 -0.0695,0.17312 -0.16099,0.30327 -0.27489,0.39037 -0.11392,0.0871 -0.23861,0.14298 -0.3741,0.16753 -0.13983,0.0264 -0.28564,0.0247 -0.43591,-0.003 -0.15461,-0.0262 -0.3054,-0.0691 -0.45381,-0.1285 l -1.66882,-0.66851 -0.21145,0.52375 1.67045,0.67013 c 0.2257,0.0904 0.44972,0.14918 0.67176,0.17729 0.21895,0.0269 0.4272,0.0129 0.62459,-0.0407 0.19429,-0.0548 0.37049,-0.15481 0.53025,-0.30254 0.15851,-0.14457 0.28864,-0.34343 0.39037,-0.59694 0.10545,-0.26277 0.14985,-0.5038 0.13338,-0.72218 -0.0208,-0.21653 -0.0851,-0.41184 -0.19193,-0.58393 -0.10992,-0.17332 -0.25302,-0.32331 -0.43104,-0.45217 -0.178,-0.12884 -0.37385,-0.23644 -0.58718,-0.32206 z m 35.10067,0.11385 c -1.29091,0.0252 -2.50807,0.23831 -3.36206,0.54164 0.14794,0.46259 0.25788,0.94186 0.47333,1.3793 0.21623,0.17564 0.45805,0.3208 0.68965,0.4782 0.0759,0.22411 0.15138,0.45108 0.22283,0.67827 0.29587,-0.25464 3.60167,-2.21519 3.63531,-2.23486 0.19767,-0.22694 0.82956,-0.27279 0.6799,-0.6555 -0.76498,-0.14604 -1.56439,-0.20121 -2.33896,-0.18705 z m -4.93654,1.0784 c -0.16565,0.0157 -0.33048,0.0284 -0.4961,0.0407 -0.34532,0.1514 -0.69427,0.29039 -1.04749,0.4229 l -3.07578,1.28009 c 0.051,0.81269 0.20969,1.6172 0.67827,2.29829 0.98181,0.82362 1.88795,1.15093 2.90174,0.44242 l 0.77586,-0.38386 c 0.003,-0.001 0.007,-0.003 0.01,-0.007 l 1.49966,-0.7417 -1.16622,-1.20852 c 0.13156,-0.21843 0.26018,-0.43946 0.39037,-0.65712 -0.15817,-0.49559 -0.31358,-0.9905 -0.47007,-1.48665 z m 32.76495,0.27488 0.21308,0.54977 1.03448,-0.002 0.49609,1.27683 -0.76447,0.69453 0.21633,0.55302 2.79439,-2.59758 -0.17729,-0.45706 z m 3.30187,0.48146 -1.20689,1.10116 -0.42127,-1.08002 z m -67.7664,2.10473 -0.48471,1.76317 c -0.0327,0.11877 -0.0373,0.23264 -0.013,0.3432 0.0247,0.11037 0.07,0.2121 0.13501,0.30254 0.0617,0.0896 0.14115,0.16655 0.23747,0.23096 0.0921,0.0669 0.19006,0.11398 0.29603,0.14314 0.16703,0.046 0.33752,0.046 0.5091,0 0.16745,-0.0437 0.30724,-0.13356 0.42128,-0.27163 0.004,0.21181 0.069,0.39491 0.19193,0.54977 0.11919,0.15716 0.28754,0.26517 0.50585,0.32531 0.13808,0.038 0.27011,0.0437 0.39525,0.0163 0.12422,-0.0246 0.23797,-0.0745 0.34157,-0.14964 0.0995,-0.0728 0.188,-0.16777 0.26513,-0.28465 0.0739,-0.11792 0.131,-0.24917 0.17079,-0.39362 l 0.44892,-1.63304 z m 68.82528,0.0293 -0.3741,0.37085 c 0.0442,0.0222 0.0926,0.0586 0.14801,0.10897 0.0586,0.0495 0.11725,0.11178 0.17567,0.18543 0.0575,0.0705 0.11263,0.15244 0.16265,0.24561 0.0491,0.09 0.087,0.18507 0.11549,0.28789 0.0631,0.22795 0.0679,0.40938 0.0146,0.54164 -0.0541,0.12905 -0.15488,0.21282 -0.30254,0.25374 -0.0835,0.0231 -0.15613,0.0266 -0.21958,0.01 -0.0611,-0.021 -0.12251,-0.0612 -0.1838,-0.12036 -0.0581,-0.06 -0.11748,-0.13728 -0.17892,-0.23423 -0.0582,-0.098 -0.12564,-0.21338 -0.20006,-0.34482 -0.0897,-0.16179 -0.1788,-0.30396 -0.26838,-0.42778 -0.0905,-0.12695 -0.18576,-0.22983 -0.28627,-0.30579 -0.10051,-0.076 -0.21332,-0.12378 -0.3367,-0.14476 -0.12105,-0.0252 -0.25904,-0.0176 -0.41314,0.0244 -0.17334,0.048 -0.3131,0.12411 -0.41964,0.22609 -0.10742,0.0988 -0.18434,0.21674 -0.2326,0.35458 -0.0459,0.13367 -0.0683,0.28085 -0.0651,0.44242 0.006,0.16074 0.035,0.32767 0.0829,0.50097 0.072,0.26003 0.17908,0.50278 0.32368,0.72544 0.14693,0.21854 0.3235,0.40386 0.52863,0.5579 l 0.39362,-0.3741 c -0.0533,-0.0302 -0.11599,-0.0755 -0.18868,-0.13826 -0.0736,-0.0661 -0.14618,-0.14399 -0.21958,-0.23422 -0.0711,-0.0944 -0.14068,-0.19919 -0.20657,-0.31229 -0.0627,-0.11394 -0.11157,-0.23593 -0.14802,-0.3676 -0.0587,-0.21189 -0.0663,-0.3861 -0.0244,-0.52212 0.0418,-0.13597 0.13369,-0.22504 0.27814,-0.26512 0.0867,-0.0239 0.16562,-0.0216 0.23585,0.006 0.0694,0.0258 0.1361,0.0729 0.20006,0.14151 0.0672,0.0678 0.13438,0.15449 0.20169,0.26025 0.0673,0.10575 0.14016,0.2273 0.21959,0.36434 0.092,0.1578 0.17977,0.2949 0.26349,0.40989 0.086,0.111 0.17626,0.19808 0.27001,0.26187 0.0937,0.064 0.19373,0.10615 0.29928,0.12524 0.10788,0.0147 0.22952,0.003 0.36435,-0.0342 0.16694,-0.0462 0.30577,-0.11807 0.41639,-0.21795 0.11384,-0.10073 0.1989,-0.21826 0.25537,-0.35134 0.0588,-0.13723 0.0896,-0.28719 0.0927,-0.45055 0.003,-0.16325 -0.0194,-0.33409 -0.0683,-0.51073 -0.064,-0.23115 -0.15982,-0.43457 -0.2879,-0.60995 -0.12806,-0.17542 -0.26797,-0.32176 -0.41802,-0.43917 z m -68.50648,0.6376 1.00682,0.27814 -0.27325,0.99218 c -0.0189,0.0674 -0.0474,0.12478 -0.0878,0.17242 -0.0416,0.0508 -0.0898,0.0918 -0.14314,0.12199 -0.0573,0.0325 -0.11968,0.0513 -0.18706,0.0569 -0.0679,0.008 -0.13903,0.003 -0.21307,-0.0163 -0.14772,-0.0407 -0.25673,-0.11535 -0.32693,-0.22446 -0.0735,-0.10996 -0.0924,-0.22931 -0.057,-0.35784 z m 1.44111,0.39687 1.04586,0.2879 -0.3009,1.09466 c -0.0195,0.0707 -0.0503,0.13149 -0.0927,0.18542 -0.0457,0.0531 -0.0972,0.096 -0.15452,0.1285 -0.0606,0.0317 -0.12557,0.053 -0.19356,0.0618 -0.0714,0.008 -0.14237,0.003 -0.21307,-0.0163 v -0.002 c -0.0707,-0.0189 -0.13489,-0.0505 -0.19194,-0.0943 -0.0581,-0.0401 -0.1064,-0.0863 -0.14313,-0.14151 -0.0376,-0.0518 -0.0618,-0.11161 -0.0748,-0.17729 -0.0126,-0.0657 -0.009,-0.1325 0.01,-0.20006 z m 24.66318,1.22641 c -0.92585,0.0157 -2.03562,0.21018 -2.82855,0.46031 l 0.41965,1.33376 c 0.19546,0.10513 0.38794,0.21313 0.5823,0.32043 1.09695,-0.41267 2.32223,-1.2587 2.6236,-1.59889 -0.10733,0.022 0.15676,-0.48733 0.0488,-0.46681 -0.24897,-0.0393 -0.53719,-0.0541 -0.8458,-0.0488 z m -4.14604,1.16623 c -0.41787,0.23449 -0.83356,0.47801 -1.24756,0.71893 -0.4461,0.45825 -0.61925,1.06624 -0.73844,1.67696 0.14038,0.45148 0.42611,0.82812 0.75959,1.15484 0.7115,-0.44749 0.87474,-0.53609 1.30611,-0.8149 -0.0645,-0.19829 -0.12877,-0.3958 -0.19519,-0.59368 0.16462,-0.25149 0.32838,-0.50127 0.49935,-0.74496 -0.12433,-0.4681 -0.25116,-0.93359 -0.38386,-1.39719 z m 28.65307,4.29568 c -1.56149,0.17343 -0.12816,-0.0582 -2.02666,0.31067 0.20742,0.86026 0.44301,1.71151 0.70429,2.55854 0.26596,0.16777 0.53533,0.35085 0.85393,0.40338 0.002,-0.009 0.57034,-2.86899 0.57254,-2.87897 -0.0283,-0.0976 -0.0789,-0.29504 -0.1041,-0.39362 z m -3.87766,0.61646 c -0.34711,0.0784 -0.69754,0.19003 -1.05888,0.14314 -0.87782,0.21277 -1.75439,0.46748 -2.54553,0.91248 0.95009,1.33664 3.03518,1.12851 4.45346,1.83148 -0.15738,-0.99021 -0.58148,-1.92194 -0.84905,-2.8871 z m 21.59878,1.61027 a 0.8551104,0.85512823 0 0 0 -0.85556,0.85556 0.8551104,0.85512823 0 0 0 0.85556,0.85556 0.8551104,0.85512823 0 0 0 0.85393,-0.85556 0.8551104,0.85512823 0 0 0 -0.85393,-0.85556 z m -68.08683,0 a 0.8551104,0.85512823 0 0 0 -0.85556,0.85556 0.8551104,0.85512823 0 0 0 0.85556,0.85556 0.8551104,0.85512823 0 0 0 0.85555,-0.85556 0.8551104,0.85512823 0 0 0 -0.85555,-0.85556 z m 42.207,1.11255 c -0.75314,0.074 -0.69908,0.082 -1.33538,0.0325 -1.68107,0.0428 -2.64933,0.24073 -3.49706,0.27976 0.33805,2.77651 0.86912,2.6916 1.40858,3.04976 2.35471,-0.77351 4.73497,-1.46974 7.08357,-2.26251 -1.07089,-0.73124 -2.46931,-0.64032 -3.65971,-1.09954 z m -6.66067,0.65224 c -0.85669,0.24299 -1.68817,0.55718 -2.52438,0.86532 l -1.62329,1.65907 c -0.1772,0.0526 -0.35451,0.1029 -0.53187,0.15452 -0.13975,0.27037 -0.28154,0.54099 -0.42941,0.81001 0.14982,0.51233 1.32647,1.08045 1.66395,1.50455 1.32348,-0.35337 3.10414,-1.64106 4.24689,-2.41378 -0.25149,-0.86561 -0.53296,-1.71956 -0.80189,-2.57969 z m 10.87991,0.66688 c -2.21905,2.62722 0.20444,6.86881 1.21502,8.04973 0.22474,0.25244 0.43674,0.5144 0.62622,0.79538 0.21277,0.17689 0.43153,0.47162 0.69778,0.19193 -0.009,-0.13157 -0.47583,-2.49347 0.14314,-5.33504 -0.29021,-1.00643 -0.62043,-2.00257 -0.93201,-3.00421 -0.59167,-0.21246 -1.15722,-0.49361 -1.75015,-0.69779 z m -18.915,2.29667 -0.64736,0.20494 c 0.26754,0.84893 0.53217,1.69748 0.80676,2.54228 0.20805,0.16871 0.41273,0.33952 0.61483,0.51399 0.83501,-0.37947 1.86813,-0.0754 2.49836,-0.79701 -2.01839,-0.51654 -2.58668,-1.68587 -3.27259,-2.4642 z m 32.29489,0.21145 c -0.009,0.21466 -0.006,0.10746 -0.002,0 0,0 0.002,0 0.002,0 z m -34.73307,0.52375 c -0.72447,0.45277 -1.59641,0.6551 -2.21534,1.27032 -0.0765,0.0397 -0.2323,0.11586 -0.31067,0.15615 -0.79652,0.77782 -1.33465,1.77675 -1.5078,2.8806 0.0526,0.18287 0.10358,0.36654 0.15615,0.55139 0.24928,0.18287 0.50313,0.3636 0.75959,0.53839 0.64339,-0.34227 1.4074,-0.44362 1.98438,-0.90436 0.44503,-0.17909 0.91426,-0.29302 1.3484,-0.49447 0.16619,-0.51714 0.46274,-0.97334 0.68965,-1.45737 -0.0157,-0.91493 -0.63735,-1.68761 -0.90436,-2.54065 z m 33.10653,2.41866 c -2.80291,-0.0796 -5.86726,0.84542 -6.24427,1.5696 0.34031,1.23274 0.72618,2.45767 1.17924,3.65483 1.56659,-0.32633 6.72251,-4.18085 7.67237,-4.76412 -0.76661,-0.2943 -1.67305,-0.43375 -2.60734,-0.46031 z m -11.57769,5.30251 c -1.78028,-0.0252 -3.82838,0.38157 -5.39847,1.0052 0.63672,2.04895 1.29532,4.08853 1.93395,6.13692 0.44912,-0.14164 0.89874,-0.28162 1.3484,-0.42127 0.17721,-0.3773 0.35273,-0.75561 0.52537,-1.13533 0.67751,-0.17909 3.30872,-1.16083 3.64507,-1.77129 0.36065,-0.52032 -0.009,-1.13465 0.0407,-1.70624 0.26219,-0.11363 0.57838,-0.14727 0.79537,-0.3432 -0.0425,-0.40484 -0.1287,-0.80351 -0.135,-1.21014 -0.71556,-0.37003 -1.68717,-0.53999 -2.75535,-0.55465 z m 7.24948,1.94208 a 1.0136117,6.0461948 60.05712 0 1 -0.0114,0.006 c 0.006,0.003 0.0116,0.01 0.0179,0.0163 -0.002,-0.009 -0.003,-0.0133 -0.006,-0.0228 z m -14.75106,0.77911 c -1.00819,0.0126 -2.67048,0.31859 -3.09042,0.4229 -0.99283,-0.0604 -5.11298,1.27174 -5.14962,1.28171 0.16115,1.79457 0.99503,3.443 1.4281,5.1789 1.17457,0.39023 8.4432,-1.6627 8.92969,-1.84287 0.0702,-0.74685 -1.36887,-4.86361 -1.3972,-4.93654 -0.12023,-0.0796 -0.38449,-0.10787 -0.72055,-0.1041 z m -10.34478,2.58945 c -1.41774,0.28831 -2.3471,0.87106 -3.49705,1.65256 0.0397,0.10954 0.12137,0.32511 0.16102,0.43266 1.41618,0.94184 2.88065,1.88508 4.57708,2.22348 0.001,-0.7788 -0.57794,-3.24015 -0.97755,-4.16231 -0.0658,-0.0378 -0.19803,-0.11114 -0.2635,-0.14639 z m -7.81388,4.22412 c -0.54339,0.25778 -1.10231,0.49118 -1.63304,0.77748 -0.13377,0.0724 -0.26748,0.14551 -0.39688,0.22609 -0.0812,0.1728 -0.16419,0.34503 -0.24886,0.51886 6e-5,0.002 -9e-5,0.005 0,0.008 l -0.87833,1.86401 c -0.001,-1.6e-4 -0.002,0 -0.003,0 3.15129,2.03177 6.70445,3.49085 10.51719,4.22899 -1.81777,-1.91229 -4.24574,-3.68992 -5.54161,-4.10212 l -0.42453,-1.29473 c -0.001,-0.004 -0.002,-0.009 -0.003,-0.013 -0.0941,-0.30594 -0.18912,-0.61233 -0.27977,-0.919 0.0796,-0.25149 0.15296,-0.50393 0.22284,-0.75634 -0.46949,-0.11331 -0.91456,-0.29213 -1.33051,-0.53675 z"
       style="display:inline;fill:#000000;stroke-width:0.52093852;stroke-linecap:round;stroke-linejoin:round" />
  </g>
</svg>
